<svg width="566" height="566" viewBox="0 0 566 566" fill="none" xmlns="http://www.w3.org/2000/svg">
<path d="M277.329 542.93C418.027 542.93 532.085 477.08 532.085 395.849C532.085 314.619 418.027 248.769 277.329 248.769C136.631 248.769 22.5721 314.619 22.5721 395.849C22.5721 477.08 136.631 542.93 277.329 542.93Z" fill="#F5F5F5"/>
<path d="M320.933 476.719C346.804 476.719 367.776 464.611 367.776 449.675C367.776 434.74 346.804 422.632 320.933 422.632C295.063 422.632 274.091 434.74 274.091 449.675C274.091 464.611 295.063 476.719 320.933 476.719Z" fill="#E0E0E0"/>
<path d="M442.793 460.701C468.663 460.701 489.635 448.593 489.635 433.658C489.635 418.722 468.663 406.614 442.793 406.614C416.923 406.614 395.951 418.722 395.951 433.658C395.951 448.593 416.923 460.701 442.793 460.701Z" fill="#E0E0E0"/>
<path d="M186.576 517.267C212.447 517.267 233.418 505.159 233.418 490.224C233.418 475.288 212.447 463.18 186.576 463.18C160.706 463.18 139.734 475.288 139.734 490.224C139.734 505.159 160.706 517.267 186.576 517.267Z" fill="#E0E0E0"/>
<path d="M109.804 401.294C109.804 401.294 108.581 372.7 96.5936 356.784C84.6057 340.868 69.9123 338.581 62.6336 343.064C57.3132 346.324 58.0263 356.014 67.2295 362.308C76.4326 368.602 94.1711 384.733 96.9445 395.249L109.804 401.294Z" fill="#37474F"/>
<path d="M101.88 397.128C101.686 397.113 101.505 397.024 101.376 396.878C101.247 396.732 101.18 396.541 101.19 396.347C102.423 370.401 79.6815 354.225 73.4895 351.316C73.3118 351.232 73.1741 351.082 73.1064 350.898C73.0386 350.713 73.0461 350.51 73.1272 350.331C73.2131 350.153 73.3654 350.015 73.5515 349.947C73.7377 349.879 73.9429 349.887 74.1234 349.969C80.4739 352.98 103.94 369.654 102.672 396.381C102.661 396.577 102.572 396.761 102.426 396.892C102.28 397.023 102.088 397.092 101.891 397.083L101.88 397.128Z" fill="white"/>
<path d="M104.144 392.26C102.51 392.238 100.938 391.627 99.7179 390.54C98.3255 389.012 98.4387 386.668 97.7935 384.699C96.7407 381.461 93.5485 379.265 90.2204 378.575C86.8459 378.048 83.3966 378.28 80.123 379.254C73.4442 380.895 67.0257 376.786 60.3356 377.273C57.9217 377.35 55.5742 378.082 53.5436 379.39C52.5421 380.052 51.7216 380.954 51.1563 382.013C50.591 383.073 50.2988 384.256 50.3061 385.457C50.5356 387.445 51.5254 389.266 53.0682 390.54C54.6152 391.81 56.3197 392.876 58.1395 393.709L64.0146 396.709C65.0303 397.16 65.9667 397.772 66.788 398.52C67.5642 399.352 68.1496 400.343 68.5035 401.424C68.8574 402.505 68.9712 403.651 68.8369 404.78C68.3841 407.044 66.5729 408.765 65.9956 410.984C65.2825 413.893 67.0597 417.006 69.618 418.579C72.2753 420.018 75.3085 420.61 78.3118 420.277C81.3116 420.108 84.2774 419.508 87.2772 419.451C89.3068 419.306 91.3352 419.75 93.1183 420.73C95.132 422.188 96.5829 424.295 97.2275 426.696C97.6163 428.236 98.2345 429.709 99.0613 431.065C100.081 432.354 101.454 433.318 103.012 433.839C106.026 434.948 109.337 434.948 112.351 433.839C114.83 432.888 116.041 430.092 116.97 427.669C117.897 425.133 118.339 422.445 118.271 419.745C118.129 412.806 116.561 405.971 113.664 399.664C112.272 396.766 110.268 393.868 107.189 392.872C106.192 392.587 105.174 392.383 104.144 392.26Z" fill="#455A64"/>
<path d="M110.574 423.368C110.437 423.368 110.303 423.326 110.192 423.247C110.08 423.168 109.996 423.056 109.951 422.926C102.967 402.901 69.9237 385.48 57.8792 383.476C57.7937 383.462 57.7119 383.431 57.6383 383.385C57.5647 383.34 57.5009 383.28 57.4505 383.209C57.4 383.139 57.3639 383.059 57.3442 382.975C57.3246 382.891 57.3217 382.803 57.3359 382.718C57.35 382.632 57.3808 382.55 57.4266 382.477C57.4723 382.403 57.5321 382.339 57.6025 382.289C57.673 382.239 57.7526 382.202 57.837 382.183C57.9214 382.163 58.0088 382.16 58.0943 382.174C70.4104 384.212 104.11 402.018 111.298 422.485C111.329 422.567 111.342 422.655 111.338 422.743C111.334 422.83 111.312 422.916 111.274 422.996C111.236 423.075 111.182 423.145 111.117 423.204C111.051 423.262 110.974 423.306 110.891 423.334C110.789 423.369 110.681 423.381 110.574 423.368Z" fill="white"/>
<path d="M80.8701 412.388C80.7437 412.377 80.623 412.33 80.5226 412.253C80.4223 412.175 80.3465 412.07 80.3046 411.95C80.2627 411.83 80.2564 411.701 80.2864 411.578C80.3165 411.455 80.3816 411.343 80.4739 411.256C85.8768 407.518 92.2662 405.466 98.8349 405.358C98.9957 405.379 99.1433 405.458 99.2502 405.58C99.3571 405.701 99.416 405.858 99.416 406.02C99.416 406.182 99.3571 406.339 99.2502 406.461C99.1433 406.582 98.9957 406.661 98.8349 406.682C92.5518 406.834 86.4466 408.8 81.255 412.342C81.1338 412.395 81.0001 412.41 80.8701 412.388Z" fill="white"/>
<path d="M110.936 438.854C110.224 438.37 109.636 437.725 109.219 436.972C108.802 436.219 108.568 435.378 108.536 434.518V198.621C108.585 197.734 108.843 196.871 109.287 196.102C109.732 195.333 110.351 194.68 111.095 194.194L388.616 33.9599C389.353 33.4957 390.203 33.2417 391.075 33.225C391.946 33.2083 392.805 33.4297 393.56 33.8653C394.314 34.3009 394.936 34.9341 395.357 35.6968C395.779 36.4596 395.984 37.3228 395.951 38.1935V274.102C395.902 274.989 395.644 275.852 395.2 276.621C394.756 277.39 394.136 278.043 393.393 278.528L115.872 438.763C115.113 439.162 114.272 439.379 113.415 439.394C112.557 439.41 111.709 439.225 110.936 438.854Z" fill="#455A64"/>
<path d="M115.385 438.978H115.283C115.206 439.025 115.122 439.059 115.034 439.08H114.841C114.728 439.12 114.61 439.146 114.491 439.159C114.415 439.19 114.334 439.209 114.253 439.216L113.868 439.273C112.858 439.409 111.83 439.231 110.925 438.763C110.214 438.282 109.627 437.639 109.212 436.888C108.797 436.136 108.565 435.297 108.536 434.439V228.856L113.336 231.63V437.28C113.336 438.412 113.913 439.114 114.751 439.114C114.863 439.131 114.978 439.131 115.09 439.114C115.195 439.084 115.294 439.038 115.385 438.978Z" fill="#014E7B"/>
<path opacity="0.81" d="M115.385 438.978H115.283C115.206 439.025 115.122 439.059 115.034 439.08H114.841C114.728 439.12 114.61 439.146 114.491 439.159C114.415 439.19 114.334 439.209 114.253 439.216L113.868 439.273C112.858 439.409 111.83 439.231 110.925 438.763C110.214 438.282 109.627 437.639 109.212 436.888C108.797 436.136 108.565 435.297 108.536 434.439V228.856L113.336 231.63V437.28C113.336 438.412 113.913 439.114 114.751 439.114C114.863 439.131 114.978 439.131 115.09 439.114C115.195 439.084 115.294 439.038 115.385 438.978Z" fill="#E0E0E0"/>
<path d="M113.325 231.63L108.525 228.856V274.533L113.325 277.329V231.63Z" fill="#014E7B"/>
<path opacity="0.15" d="M113.325 231.63L108.525 228.856V274.533L113.325 277.329V231.63Z" fill="black"/>
<path d="M114.06 198.87C113.607 199.632 113.354 200.496 113.325 201.383V231.63L108.525 228.856V198.621C108.519 198.519 108.519 198.417 108.525 198.315C108.547 198.102 108.581 197.89 108.627 197.681C108.768 197.127 108.981 196.594 109.261 196.096L114.06 198.87Z" fill="#263238"/>
<path d="M395.951 38.2049V51.8568L192.519 169.302C191.116 170.117 189.972 169.449 189.972 167.83V162.657C189.972 161.038 188.84 160.393 187.414 161.185L125.46 196.968C124.716 197.453 124.097 198.107 123.652 198.876C123.208 199.645 122.951 200.507 122.901 201.394V206.556C122.853 207.442 122.598 208.304 122.155 209.073C121.713 209.841 121.096 210.495 120.354 210.982L113.325 215.08V201.496C113.373 200.61 113.628 199.748 114.07 198.979C114.513 198.21 115.13 197.556 115.872 197.07L393.404 36.7333C394.808 35.9182 395.951 36.5748 395.951 38.2049Z" fill="#37474F"/>
<path d="M395.962 274.114C395.911 274.999 395.653 275.859 395.209 276.626C394.764 277.393 394.146 278.044 393.404 278.529L115.872 438.763C114.468 439.567 113.325 438.91 113.325 437.28V215.08L120.354 211.027C121.758 210.212 124.045 197.828 125.46 197.013L186.372 161.842C187.787 161.027 191.116 170.174 192.519 169.359L395.951 51.8569V274.114H395.962Z" fill="#014E7B"/>
<path opacity="0.9" d="M395.962 274.114C395.911 274.999 395.653 275.859 395.209 276.626C394.764 277.393 394.146 278.044 393.404 278.529L115.872 438.763C114.468 439.567 113.325 438.91 113.325 437.28V215.08L120.354 211.027C121.758 210.212 124.045 197.828 125.46 197.013L186.372 161.842C187.787 161.027 191.116 170.174 192.519 169.359L395.951 51.8569V274.114H395.962Z" fill="white"/>
<g opacity="0.4">
<path opacity="0.4" d="M394.819 53.8153V274.114C394.764 274.793 394.556 275.452 394.211 276.04C393.866 276.628 393.393 277.13 392.827 277.51L115.306 437.778C115.134 437.894 114.935 437.961 114.728 437.971C114.468 437.971 114.457 437.405 114.457 437.28V215.68L120.92 211.944C121.916 211.367 122.55 209.386 123.977 204.292C124.495 202.097 125.207 199.953 126.105 197.885L186.52 163.008C187.243 163.994 187.893 165.03 188.467 166.11C190.108 168.985 191.014 170.479 192.327 170.479C192.592 170.479 192.852 170.412 193.085 170.287L394.819 53.8153ZM395.951 51.8569L192.519 169.302C192.456 169.318 192.39 169.318 192.327 169.302C190.9 169.302 188.003 161.684 186.565 161.684C186.502 161.667 186.436 161.667 186.372 161.684L125.46 196.968C124.045 197.783 121.758 210.167 120.354 210.982L113.325 215.08V437.28C113.325 438.412 113.902 439.103 114.728 439.103C115.128 439.086 115.517 438.969 115.86 438.763L393.404 278.529C394.146 278.044 394.764 277.393 395.209 276.626C395.653 275.859 395.911 274.999 395.962 274.114V51.8569H395.951Z" fill="#014E7B"/>
</g>
<path d="M113.325 231.63V277.329L395.951 114.174V68.4634L113.325 231.63Z" fill="#014E7B"/>
<path d="M395.951 51.8569V68.4634L113.325 231.63V215.08L118.566 212.046C119.969 211.231 120.445 209.986 121.113 207.62L122.901 201.439C123.456 199.289 124.033 197.828 125.46 197.013L186.372 161.842C187.787 161.027 188.897 160.936 189.972 162.714L192.157 166.676C192.949 168.068 193.357 168.883 194.761 168.068L395.951 51.8569Z" fill="#F0F0F0"/>
<path d="M383.974 46.7627C385.752 45.7439 387.189 46.5702 387.189 48.6191C387.129 49.7348 386.806 50.8205 386.248 51.7882C385.689 52.7558 384.91 53.5782 383.974 54.1886C382.209 55.2074 380.771 54.381 380.771 52.3321C380.832 51.2179 381.154 50.1335 381.71 49.1662C382.266 48.1989 383.042 47.3756 383.974 46.7627Z" fill="#014E7B"/>
<path d="M372.428 53.4301C374.194 52.4113 375.632 53.2377 375.632 55.2866C375.571 56.4009 375.249 57.4852 374.693 58.4526C374.136 59.4199 373.361 60.2431 372.428 60.8561C370.651 61.8749 369.213 61.0485 369.213 58.9996C369.274 57.8839 369.596 56.7982 370.155 55.8306C370.713 54.8629 371.492 54.0405 372.428 53.4301Z" fill="#014E7B"/>
<path d="M360.848 60.0976C362.614 59.0788 364.063 59.9052 364.063 61.9541C363.999 63.0691 363.676 64.1538 363.117 65.1211C362.559 66.0883 361.782 66.9112 360.848 67.5236C359.07 68.5537 357.633 67.716 357.633 65.6671C357.693 64.5514 358.016 63.4657 358.574 62.4981C359.133 61.5304 359.912 60.708 360.848 60.0976Z" fill="#014E7B"/>
<path opacity="0.5" d="M125.029 216.212L121.022 218.476L122.55 215.544C122.611 215.433 122.642 215.308 122.642 215.182C122.642 215.055 122.611 214.931 122.55 214.82C122.437 214.684 122.233 214.82 122.098 215.035L119.924 219.223C119.919 219.276 119.919 219.329 119.924 219.382C119.919 219.453 119.919 219.525 119.924 219.597C119.917 219.661 119.917 219.725 119.924 219.789C119.919 219.819 119.919 219.85 119.924 219.88L122.098 221.555C122.13 221.575 122.167 221.586 122.205 221.586C122.243 221.586 122.28 221.575 122.313 221.555C122.416 221.47 122.498 221.361 122.55 221.238C122.664 220.966 122.652 220.661 122.55 220.559L121.022 219.427L125.029 217.163C125.134 217.081 125.219 216.977 125.276 216.857C125.333 216.737 125.361 216.605 125.358 216.472C125.358 216.212 125.211 216.121 125.029 216.212Z" fill="#455A64"/>
<path opacity="0.5" d="M128.38 214.287L132.387 212.023L130.859 210.891C130.723 210.789 130.712 210.484 130.859 210.212C131.006 209.94 131.176 209.793 131.312 209.895L133.485 211.571C133.514 211.591 133.537 211.618 133.553 211.65C133.565 211.71 133.565 211.771 133.553 211.831C133.565 211.902 133.565 211.975 133.553 212.046C133.553 212.046 133.553 212.046 133.553 212.103C133.536 212.157 133.513 212.21 133.485 212.261L131.312 216.404C131.265 216.506 131.19 216.592 131.097 216.653C131.065 216.684 131.023 216.702 130.978 216.702C130.934 216.702 130.891 216.684 130.859 216.653C130.796 216.543 130.762 216.418 130.762 216.291C130.762 216.164 130.796 216.039 130.859 215.929L132.387 212.986L128.38 215.306C128.199 215.408 128.063 215.306 128.063 214.989C128.056 214.855 128.081 214.722 128.136 214.6C128.191 214.478 128.275 214.37 128.38 214.287Z" fill="#455A64"/>
<path opacity="0.5" d="M141.5 202.741C141.5 202.503 141.262 202.537 141.16 202.798L140.606 204.145C139.666 204.043 138.534 204.948 137.764 206.579C136.78 208.673 136.78 211.107 137.764 212.114C138.006 212.34 138.319 212.475 138.65 212.496C138.98 212.516 139.308 212.422 139.576 212.227C140.376 211.69 141.002 210.931 141.376 210.042C141.438 209.936 141.471 209.815 141.471 209.692C141.471 209.568 141.438 209.447 141.376 209.341C141.24 209.216 141.036 209.341 140.911 209.601C140.176 211.163 138.964 211.865 138.229 211.152C137.493 210.439 137.481 208.582 138.229 207.009C138.749 205.877 139.508 205.231 140.176 205.198L139.757 206.205C139.655 206.465 139.757 206.714 139.915 206.601L141.557 205.537C141.619 205.48 141.668 205.41 141.7 205.332C141.731 205.253 141.744 205.169 141.738 205.084L141.5 202.741Z" fill="#455A64"/>
<path opacity="0.5" d="M184.618 169.37L186.078 166.268C186.164 166.122 186.209 165.956 186.209 165.787C186.209 165.618 186.164 165.452 186.078 165.306C185.908 165.147 185.625 165.306 185.456 165.668L183.995 168.759L182.524 167.355C182.354 167.185 182.071 167.355 181.901 167.717C181.815 167.863 181.77 168.029 181.77 168.198C181.77 168.367 181.815 168.533 181.901 168.679L183.361 170.083L181.901 173.196C181.815 173.342 181.77 173.508 181.77 173.677C181.77 173.846 181.815 174.012 181.901 174.158C181.946 174.195 182.002 174.215 182.06 174.215C182.117 174.215 182.173 174.195 182.218 174.158C182.358 174.071 182.466 173.94 182.524 173.785L183.995 170.683L185.456 172.098C185.498 172.134 185.552 172.154 185.608 172.154C185.664 172.154 185.718 172.134 185.761 172.098C185.902 172.008 186.013 171.878 186.078 171.724C186.164 171.579 186.209 171.412 186.209 171.243C186.209 171.074 186.164 170.908 186.078 170.762L184.618 169.37Z" fill="#455A64"/>
<path d="M146.854 206.544V201.383C146.907 200.497 147.166 199.636 147.613 198.869C148.059 198.102 148.68 197.451 149.424 196.968L379.05 64.5238C380.465 63.7087 381.609 64.3653 381.609 65.9954V71.0894C381.559 71.9761 381.302 72.8388 380.858 73.6077C380.413 74.3766 379.794 75.0302 379.05 75.5155L149.424 208.027C147.998 208.842 146.854 208.175 146.854 206.544Z" fill="white"/>
<path d="M375.552 75.8438C375.493 75.8557 375.431 75.8557 375.371 75.8438C375.251 75.7839 375.155 75.6856 375.098 75.5645C375.04 75.4435 375.025 75.3067 375.054 75.176L375.303 73.0365L374.262 72.2894C374.188 72.2351 374.128 72.1632 374.089 72.0802C374.049 71.9972 374.031 71.9057 374.035 71.8139C374.036 71.6582 374.071 71.5045 374.137 71.3636C374.204 71.2228 374.3 71.0983 374.42 70.9989L375.915 69.8669C375.965 69.8217 376 69.7626 376.016 69.6971L376.684 67.501C376.722 67.3408 376.805 67.1949 376.924 67.0805C377.042 66.9662 377.191 66.8882 377.352 66.8558C377.453 66.8523 377.553 66.8783 377.639 66.9306C377.726 66.9828 377.795 67.0591 377.839 67.1501L378.439 68.4406L379.797 67.9198C379.893 67.879 379.999 67.869 380.1 67.8913C380.202 67.9136 380.294 67.9672 380.363 68.0444C380.453 68.1807 380.5 68.34 380.5 68.5028C380.5 68.6657 380.453 68.825 380.363 68.9613L379.231 70.9989C379.219 71.0587 379.219 71.1202 379.231 71.18L379.492 73.0252C379.507 73.1761 379.489 73.3287 379.438 73.4716C379.387 73.6146 379.305 73.7444 379.197 73.8515C379.137 73.9234 379.06 73.9795 378.974 74.015C378.887 74.0505 378.793 74.0643 378.699 74.0553L377.352 73.8855L376.05 75.6288C375.988 75.698 375.911 75.7531 375.825 75.7902C375.739 75.8273 375.646 75.8456 375.552 75.8438ZM374.692 71.6894L375.733 72.4365C375.821 72.5096 375.887 72.605 375.925 72.7126C375.963 72.8202 375.971 72.936 375.949 73.0478L375.824 74.8137L376.956 73.3874C377.021 73.2955 377.107 73.2213 377.208 73.1719C377.309 73.1224 377.421 73.0992 377.533 73.1044L378.88 73.2742C378.88 73.2742 378.937 73.0931 378.88 73.0025L378.62 71.1574C378.602 70.9531 378.645 70.7482 378.745 70.5687L379.877 68.5311L378.631 69.0066C378.572 69.0326 378.508 69.0464 378.443 69.0474C378.378 69.0483 378.314 69.0363 378.254 69.0121C378.194 68.9878 378.139 68.9518 378.093 68.9062C378.047 68.8605 378.011 68.8061 377.986 68.7462L377.431 67.6142L376.764 69.8103C376.708 70.0122 376.589 70.1908 376.424 70.3197L374.93 71.4517C374.824 71.4993 374.74 71.5839 374.692 71.6894Z" fill="#E0E0E0"/>
<g opacity="0.5">
<path opacity="0.5" d="M384.597 63.8218C384.401 63.8238 384.21 63.7606 384.054 63.642C383.898 63.5234 383.786 63.3562 383.735 63.1668C383.684 62.9774 383.698 62.7766 383.774 62.5959C383.851 62.4153 383.985 62.2651 384.156 62.1691L391.332 58.026C391.433 57.9673 391.544 57.9289 391.659 57.9131C391.774 57.8972 391.891 57.9042 392.004 57.9336C392.116 57.9631 392.222 58.0144 392.314 58.0846C392.407 58.1548 392.485 58.2426 392.544 58.343C392.602 58.4433 392.641 58.5542 392.657 58.6694C392.672 58.7846 392.665 58.9018 392.636 59.0142C392.607 59.1267 392.555 59.2323 392.485 59.3249C392.415 59.4176 392.327 59.4955 392.227 59.5542L385.039 63.7086C384.904 63.7844 384.752 63.8234 384.597 63.8218Z" fill="#455A64"/>
<path opacity="0.5" d="M384.597 67.9762C384.441 67.976 384.288 67.9351 384.153 67.8577C384.018 67.7803 383.906 67.669 383.827 67.5348C383.769 67.4338 383.731 67.3223 383.716 67.2066C383.7 67.0909 383.708 66.9733 383.739 66.8607C383.769 66.748 383.822 66.6426 383.893 66.5504C383.965 66.4582 384.054 66.3811 384.156 66.3235L391.332 62.1691C391.534 62.0762 391.764 62.062 391.976 62.1292C392.188 62.1964 392.367 62.3402 392.479 62.5325C392.591 62.7248 392.627 62.9519 392.58 63.1693C392.533 63.3868 392.407 63.5791 392.227 63.7086L385.038 67.8517C384.905 67.9309 384.752 67.9738 384.597 67.9762Z" fill="#455A64"/>
<path opacity="0.5" d="M384.597 72.1192C384.441 72.119 384.289 72.0781 384.154 72.0007C384.019 71.9232 383.906 71.8119 383.827 71.6777C383.769 71.5777 383.731 71.467 383.716 71.3521C383.701 71.2373 383.709 71.1206 383.74 71.0089C383.77 70.8972 383.823 70.7927 383.894 70.7015C383.966 70.6103 384.054 70.5343 384.156 70.4778L391.332 66.3234C391.433 66.2646 391.544 66.2263 391.659 66.2104C391.774 66.1946 391.891 66.2016 392.004 66.231C392.116 66.2604 392.222 66.3117 392.314 66.382C392.407 66.4522 392.485 66.54 392.544 66.6403C392.602 66.7407 392.641 66.8516 392.657 66.9668C392.672 67.0819 392.665 67.1991 392.636 67.3116C392.607 67.4241 392.555 67.5296 392.485 67.6223C392.415 67.7149 392.327 67.7928 392.227 67.8516L385.039 72.006C384.904 72.0817 384.752 72.1208 384.597 72.1192Z" fill="#455A64"/>
</g>
<path d="M113.325 215.023V231.63L108.525 228.856V212.261L113.325 215.023Z" fill="#E0E0E0"/>
<path d="M303.258 145.82L301.577 146.803L306.438 128.628L308.092 127.661L312.953 140.152L311.272 141.135L307.317 130.54L307.213 130.601L303.258 145.82ZM303.878 139.468L310.652 135.508V137.155L303.878 141.115V139.468ZM315.015 138.947V123.614L316.54 122.723V128.383L316.669 128.307C316.781 128.042 316.936 127.697 317.134 127.271C317.337 126.838 317.626 126.39 318.001 125.926C318.38 125.455 318.892 125.031 319.539 124.653C320.375 124.164 321.112 123.975 321.749 124.087C322.387 124.198 322.885 124.593 323.242 125.273C323.6 125.952 323.779 126.896 323.779 128.104C323.779 129.321 323.6 130.482 323.242 131.584C322.885 132.682 322.389 133.66 321.756 134.519C321.122 135.374 320.392 136.043 319.565 136.527C318.927 136.899 318.416 137.076 318.033 137.055C317.649 137.03 317.354 136.92 317.147 136.727C316.941 136.528 316.781 136.357 316.669 136.213L316.488 136.319V138.086L315.015 138.947ZM316.514 132.321C316.514 133.189 316.624 133.891 316.844 134.426C317.063 134.957 317.384 135.286 317.807 135.413C318.229 135.536 318.746 135.418 319.358 135.06C319.996 134.688 320.528 134.182 320.954 133.543C321.385 132.897 321.708 132.179 321.924 131.389C322.143 130.592 322.253 129.784 322.253 128.965C322.253 128.157 322.146 127.491 321.93 126.968C321.719 126.438 321.398 126.109 320.967 125.981C320.541 125.847 320.004 125.968 319.358 126.346C318.737 126.709 318.216 127.196 317.794 127.807C317.371 128.413 317.053 129.103 316.837 129.878C316.622 130.648 316.514 131.462 316.514 132.321ZM330.145 130.341C329.249 130.865 328.462 131.078 327.786 130.979C327.114 130.878 326.588 130.494 326.209 129.827C325.834 129.158 325.647 128.229 325.647 127.042C325.647 125.844 325.834 124.688 326.209 123.576C326.588 122.461 327.114 121.46 327.786 120.573C328.462 119.683 329.249 118.976 330.145 118.452C331.041 117.928 331.825 117.717 332.498 117.818C333.174 117.917 333.7 118.303 334.075 118.977C334.454 119.649 334.643 120.584 334.643 121.782C334.643 122.97 334.454 124.119 334.075 125.229C333.7 126.336 333.174 127.335 332.498 128.225C331.825 129.112 331.041 129.817 330.145 130.341ZM330.145 128.754C330.826 128.356 331.386 127.826 331.825 127.165C332.265 126.504 332.59 125.782 332.801 125C333.013 124.218 333.118 123.442 333.118 122.674C333.118 121.905 333.013 121.25 332.801 120.71C332.59 120.17 332.265 119.823 331.825 119.671C331.386 119.519 330.826 119.641 330.145 120.039C329.464 120.437 328.904 120.97 328.465 121.636C328.025 122.302 327.7 123.029 327.489 123.816C327.277 124.603 327.172 125.381 327.172 126.15C327.172 126.918 327.277 127.57 327.489 128.106C327.7 128.641 328.025 128.983 328.465 129.13C328.904 129.277 329.464 129.152 330.145 128.754ZM343.228 117.751V110.953L344.754 110.062V121.561L343.228 122.453V120.506L343.125 120.567C342.892 121.287 342.53 121.995 342.039 122.692C341.548 123.383 340.927 123.948 340.178 124.386C339.557 124.749 339.006 124.914 338.523 124.882C338.04 124.844 337.661 124.587 337.385 124.109C337.11 123.627 336.972 122.896 336.972 121.918V114.611L338.497 113.719V120.906C338.497 121.745 338.7 122.295 339.105 122.558C339.514 122.818 340.035 122.762 340.669 122.392C341.048 122.17 341.434 121.833 341.826 121.379C342.222 120.922 342.554 120.384 342.821 119.764C343.092 119.141 343.228 118.47 343.228 117.751ZM351.865 105.904V107.402L346.72 110.409V108.912L351.865 105.904ZM348.219 105.28L349.745 104.389V115.349C349.745 115.848 349.807 116.186 349.932 116.363C350.061 116.532 350.225 116.601 350.423 116.569C350.626 116.531 350.839 116.446 351.063 116.315C351.231 116.217 351.369 116.126 351.477 116.043C351.585 115.956 351.671 115.885 351.735 115.832L352.046 117.238C351.942 117.344 351.798 117.473 351.613 117.626C351.427 117.784 351.193 117.947 350.908 118.113C350.477 118.365 350.055 118.504 349.641 118.532C349.232 118.556 348.892 118.428 348.62 118.148C348.353 117.865 348.219 117.389 348.219 116.72V105.28ZM365.535 104.711V97.9128L367.06 97.021V108.521L365.535 109.412V107.466L365.431 107.526C365.198 108.246 364.836 108.954 364.345 109.651C363.854 110.342 363.234 110.907 362.484 111.346C361.863 111.708 361.312 111.873 360.829 111.841C360.347 111.804 359.968 111.546 359.692 111.069C359.416 110.586 359.278 109.856 359.278 108.877V101.57L360.803 100.679V107.866C360.803 108.704 361.006 109.255 361.411 109.517C361.82 109.777 362.342 109.722 362.975 109.351C363.354 109.13 363.74 108.792 364.132 108.338C364.528 107.882 364.86 107.343 365.127 106.723C365.399 106.1 365.535 105.429 365.535 104.711ZM376.886 93.8522L375.515 95.1024C375.429 94.8883 375.302 94.7055 375.134 94.5542C374.97 94.3954 374.746 94.3168 374.462 94.3183C374.177 94.3198 373.813 94.4504 373.37 94.7098C372.762 95.065 372.256 95.5232 371.851 96.0844C371.45 96.6381 371.25 97.162 371.25 97.6561C371.25 98.0954 371.388 98.3616 371.663 98.455C371.939 98.5483 372.37 98.5085 372.956 98.3356L374.43 97.8934C375.317 97.624 375.979 97.6192 376.414 97.8788C376.849 98.1335 377.067 98.6626 377.067 99.4662C377.067 100.125 376.903 100.81 376.575 101.52C376.252 102.228 375.8 102.902 375.218 103.542C374.636 104.181 373.96 104.726 373.189 105.177C372.176 105.769 371.338 106.005 370.674 105.883C370.011 105.762 369.591 105.264 369.414 104.389L370.862 103.124C371 103.662 371.26 103.974 371.644 104.059C372.032 104.142 372.538 104 373.163 103.635C373.874 103.219 374.438 102.715 374.856 102.121C375.278 101.52 375.49 100.972 375.49 100.478C375.49 100.079 375.369 99.8148 375.128 99.6864C374.886 99.5529 374.516 99.5649 374.016 99.7224L372.361 100.24C371.452 100.522 370.784 100.526 370.358 100.251C369.935 99.9692 369.724 99.4313 369.724 98.6377C369.724 97.9889 369.882 97.3229 370.196 96.6399C370.515 95.9544 370.948 95.3094 371.495 94.705C372.047 94.0981 372.672 93.5906 373.37 93.1825C374.352 92.6082 375.123 92.4068 375.683 92.5785C376.248 92.7476 376.649 93.1722 376.886 93.8522Z" fill="#F2F2F2"/>
<path opacity="0.1" d="M125.584 288.105L203.749 242.972V370.401L125.358 415.41L125.584 288.105Z" fill="#014E7B"/>
<path opacity="0.15" d="M220.978 235.377L315.273 180.939C317.175 179.807 318.669 180.667 318.669 182.784C318.598 183.955 318.254 185.093 317.665 186.108C317.075 187.122 316.256 187.984 315.273 188.625L220.966 243.674C219.076 244.806 217.57 243.901 217.57 241.716V241.32C217.634 240.132 217.975 238.975 218.567 237.943C219.159 236.911 219.985 236.032 220.978 235.377Z" fill="#014E7B"/>
<path opacity="0.1" d="M219.993 251.87L376.028 161.785C377.386 161.004 378.484 161.559 378.484 163.019C378.424 163.844 378.171 164.643 377.744 165.351C377.317 166.059 376.729 166.656 376.028 167.094L219.993 257.179C218.646 257.96 217.548 257.405 217.548 255.945C217.607 255.122 217.859 254.324 218.284 253.616C218.709 252.908 219.294 252.31 219.993 251.87Z" fill="#014E7B"/>
<path opacity="0.1" d="M219.993 262.533L376.028 172.449C377.386 171.668 378.484 172.222 378.484 173.683C378.424 174.507 378.171 175.306 377.744 176.014C377.317 176.723 376.729 177.32 376.028 177.758L219.993 267.843C218.646 268.624 217.548 268.069 217.548 266.597C217.609 265.776 217.862 264.98 218.287 264.274C218.711 263.569 219.296 262.972 219.993 262.533Z" fill="#014E7B"/>
<path opacity="0.1" d="M219.993 273.185L376.028 183.101C377.386 182.32 378.484 182.874 378.484 184.346C378.423 185.169 378.168 185.965 377.741 186.671C377.315 187.377 376.728 187.973 376.028 188.41L219.993 278.472C218.646 279.253 217.548 278.698 217.548 277.227C217.614 276.41 217.869 275.619 218.294 274.918C218.718 274.216 219.3 273.623 219.993 273.185Z" fill="#014E7B"/>
<path opacity="0.1" d="M219.993 283.849L376.028 193.764C377.386 192.983 378.484 193.538 378.484 194.998C378.424 195.823 378.171 196.622 377.744 197.33C377.317 198.038 376.729 198.635 376.028 199.073L219.993 289.158C218.646 289.939 217.548 289.384 217.548 287.924C217.607 287.101 217.859 286.303 218.284 285.595C218.709 284.887 219.294 284.289 219.993 283.849Z" fill="#014E7B"/>
<path opacity="0.1" d="M219.993 294.512L328.869 231.12C330.216 230.339 331.314 230.894 331.314 232.366C331.253 233.187 330.999 233.983 330.575 234.689C330.15 235.394 329.566 235.991 328.869 236.429L219.993 299.821C218.646 300.603 217.548 300.048 217.548 298.576C217.609 297.755 217.862 296.959 218.287 296.253C218.711 295.548 219.296 294.951 219.993 294.512Z" fill="#014E7B"/>
<path opacity="0.1" d="M219.993 315.828L376.028 225.743C377.386 224.962 378.484 225.517 378.484 226.977C378.424 227.802 378.171 228.601 377.744 229.309C377.317 230.017 376.729 230.614 376.028 231.052L219.993 321.137C218.646 321.918 217.548 321.363 217.548 319.903C217.607 319.08 217.859 318.282 218.284 317.574C218.709 316.866 219.294 316.268 219.993 315.828Z" fill="#014E7B"/>
<path opacity="0.1" d="M219.993 326.491L376.028 236.407C377.386 235.626 378.484 236.18 378.484 237.641C378.424 238.465 378.171 239.264 377.744 239.972C377.317 240.681 376.729 241.278 376.028 241.716L219.993 331.801C218.646 332.582 217.548 332.027 217.548 330.555C217.609 329.734 217.862 328.938 218.287 328.232C218.711 327.527 219.296 326.93 219.993 326.491Z" fill="#014E7B"/>
<path opacity="0.1" d="M219.993 337.143L376.028 247.059C377.386 246.278 378.484 246.832 378.484 248.304C378.423 249.127 378.168 249.923 377.741 250.629C377.315 251.336 376.728 251.931 376.028 252.368L219.993 342.464C218.646 343.245 217.548 342.69 217.548 341.219C217.609 340.396 217.862 339.598 218.287 338.891C218.711 338.183 219.295 337.585 219.993 337.143Z" fill="#014E7B"/>
<path opacity="0.1" d="M219.993 347.807L277.34 314.345C278.687 313.564 279.785 314.119 279.785 315.59C279.724 316.412 279.471 317.207 279.046 317.913C278.622 318.619 278.037 319.215 277.34 319.654L220.004 353.116C218.657 353.897 217.559 353.342 217.559 351.882C217.617 351.06 217.868 350.263 218.291 349.555C218.713 348.847 219.296 348.248 219.993 347.807Z" fill="#014E7B"/>
<path d="M428.507 286.622C436.805 259.703 444.876 241.965 436.646 236.475C428.994 237.901 425.564 241.693 423.934 251.791C422.225 262.375 418.67 277.136 416.599 285.649C414.808 292.763 412.246 299.66 408.958 306.217C408.462 307.125 407.659 307.827 406.694 308.198C404.135 309.206 402.913 310.462 400.83 312.002C399.188 313.134 397.989 313.292 398.068 313.779C398.202 314.325 398.545 314.797 399.024 315.093C399.502 315.39 400.077 315.487 400.626 315.364C401.856 315.131 403.053 314.751 404.192 314.232C403.213 316.712 401.689 318.94 399.732 320.752C395.713 324.148 396.336 327.465 402.777 327.85C405.041 327.985 410.441 325.88 415.41 317.424C417.09 314.272 418.569 311.017 419.836 307.677C423.3 299.006 426.843 292.056 428.507 286.622Z" fill="#FFA8A7"/>
<path d="M438.084 236.158C438.084 236.158 431.7 235.829 427.828 240.097C423.957 244.365 419.451 269.857 419.451 269.857C419.451 269.857 423.685 275.676 434.846 273.253L438.084 236.158Z" fill="#014E7B"/>
<path opacity="0.3" d="M438.084 236.158C438.084 236.158 431.7 235.829 427.828 240.097C423.957 244.365 419.451 269.857 419.451 269.857C419.451 269.857 423.685 275.676 434.846 273.253L438.084 236.158Z" fill="black"/>
<path d="M467.98 417.006H459.411V432.288H467.98V417.006Z" fill="#FFA8A7"/>
<path d="M438.265 416.191L429.696 416.508L429.266 400.332L438.265 400.026V416.191Z" fill="#FFA8A7"/>
<path d="M469.191 284.698C469.191 293.222 467.935 361.821 467.935 361.821C468.127 364.278 470.335 368.806 469.859 378.224C469.214 391.016 468.342 424.636 468.342 424.636C466.872 425.393 465.248 425.805 463.595 425.84C461.941 425.876 460.301 425.533 458.8 424.84C458.8 424.84 450.695 378.258 449.166 365.568C447.819 354.509 445.544 317.243 445.544 317.243L440.903 360.565C441.892 365.227 442.25 370.002 441.967 374.76C441.559 380.624 438.809 411.176 438.809 411.176C437.327 412.05 435.666 412.574 433.952 412.709C432.238 412.844 430.515 412.587 428.915 411.958C428.915 411.958 424.036 365.953 423.934 360.565C423.821 354.429 426.787 284.596 426.787 284.596L469.191 284.698Z" fill="#37474F"/>
<path d="M459.411 427.896V426.617C458.585 426.99 456.683 434.541 453.287 437.801C450.581 440.359 446.891 443.325 445.951 446.189C445.012 449.053 451.091 450.819 453.615 450.355C456.547 449.812 461.641 447.661 462.909 445.657C464.177 443.653 464.788 440.722 465.829 439.261C466.871 437.801 469.225 436.171 469.814 434.473C470.131 433.545 469.814 431.507 469.327 429.786C468.84 428.066 468.501 426.47 467.98 426.617V427.59C466.779 428.587 465.262 429.125 463.701 429.107C462.445 429.141 459.4 428.881 459.411 427.896Z" fill="#263238"/>
<path d="M429.605 413.746C429.164 413.746 428.802 414.414 427.817 415.523C426.362 417.058 424.659 418.336 422.779 419.304C419.564 420.98 413.327 423.549 410.497 424.874C408.742 425.7 408.822 427.919 410.644 429.187C412.467 430.454 416.87 431.36 422.157 430.126C425.032 429.458 428.79 426.73 431.156 426.832C433.522 426.934 437.948 426.957 439.725 425.7C441.503 424.444 440.778 421.761 440.28 419.451C439.737 416.938 439.069 413.01 438.265 413.18V414.052C437.235 415.671 431.915 416.316 429.651 415.184L429.605 413.746Z" fill="#263238"/>
<path d="M445.544 317.254C441.084 315.798 437.007 313.361 433.613 310.123C433.613 310.123 435.877 314.651 442.759 318.794L441.299 357.485L445.544 317.254Z" fill="#263238"/>
<path d="M464.731 238.196C464.731 238.196 471.433 238.818 470.957 251.587L469.474 271.963V302.527C463.169 309.67 435.231 309.138 425.666 301.95C425.666 301.95 426.741 265.805 427.387 251.893C427.851 242.01 430.126 237.03 439.839 235.943L451.781 236.464L464.731 238.196Z" fill="#014E7B"/>
<path opacity="0.3" d="M445.68 244.897L444.14 255.628L440.563 255.56L444.604 256.206L445.68 244.897Z" fill="black"/>
<path d="M454.622 209.42C454.692 212.875 453.388 216.216 450.996 218.71C448.604 221.204 445.32 222.647 441.865 222.721C434.812 222.721 429.413 216.755 429.096 209.431C428.541 196.447 434.812 196.13 441.865 196.13C445.318 196.205 448.6 197.646 450.992 200.137C453.384 202.629 454.689 205.967 454.622 209.42Z" fill="#263238"/>
<path d="M461.856 215.997C461.856 215.997 459.898 225.574 459.117 227.147C458.611 228.107 457.75 228.831 456.717 229.162L456.853 222.427L461.856 215.997Z" fill="#263238"/>
<path d="M459.433 202.277C459.433 202.277 460.837 201.926 462.331 204.258C463.611 206.25 463.905 210.733 461.89 215.997L458.211 216.438L459.433 202.277Z" fill="#263238"/>
<path d="M457.102 216.439C457.837 216.903 458.89 215.42 459.807 214.424C460.724 213.427 463.69 212.08 465.184 215.329C466.678 218.578 463.871 223.038 461.528 223.808C457.486 225.132 456.886 222.427 456.886 222.427L456.569 237.596C451.215 245.893 439.069 245.588 443.438 237.199V232.581C441.64 232.88 439.814 232.979 437.993 232.875C435.028 232.388 433.16 229.955 432.254 226.604C430.805 221.227 430.262 216.891 431.484 206.307C432.843 194.704 445.793 194.602 452.8 199.232C459.807 203.862 457.102 216.439 457.102 216.439Z" fill="#FFA8A7"/>
<path d="M456.637 234.2C455.392 236.749 453.603 238.994 451.396 240.777C449.521 242.162 447.345 243.085 445.046 243.471C446.943 244.756 448.497 246.485 449.574 248.508C450.921 251.451 460.35 243.335 460.26 237.573C460.26 237.573 458.788 231.789 456.751 231.426L456.637 234.2Z" fill="#263238"/>
<path d="M445.046 243.47C445.046 243.47 442.137 242.033 443.438 237.199V232.581L442.159 232.75C440.668 234.203 439.61 236.041 439.103 238.059C438.808 239.384 438.084 246.085 439.363 247.41C440.642 248.734 442.431 243.833 445.046 243.47Z" fill="#263238"/>
<path d="M452.143 203.76C452.474 203.687 452.819 203.707 453.14 203.816C454.272 204.315 454.475 207.733 454.668 208.718C455.313 212.035 455.856 217.661 457.102 217.683C457.475 217.683 458.89 215.25 459.807 214.378C461.086 213.167 459.434 202.232 459.434 202.232C459.771 201.287 459.835 200.267 459.619 199.288C459.403 198.309 458.915 197.411 458.211 196.696C455.947 194.07 452.302 193.481 449.008 193.3C445.125 193.085 441.186 193.379 437.36 192.53C436.158 192.196 434.937 191.936 433.703 191.749C433.651 191.727 433.595 191.716 433.539 191.716C433.483 191.716 433.427 191.727 433.375 191.749C433.25 191.851 433.273 192.044 433.307 192.202C433.547 193.348 433.951 194.454 434.507 195.485C432.229 195.305 429.98 194.861 427.805 194.16C427.68 194.121 427.546 194.121 427.421 194.16C427.16 194.24 427.115 194.579 427.138 194.851C427.285 197.59 428.587 201.734 430.817 203.341C432.793 204.635 435.089 205.36 437.45 205.435C443.45 205.662 447.14 204.394 452.143 203.76Z" fill="#263238"/>
<path d="M459.434 202.855L463.905 200.353C463.768 200.045 463.569 199.769 463.32 199.542C463.07 199.316 462.776 199.144 462.457 199.037C462.137 198.931 461.799 198.892 461.464 198.924C461.128 198.955 460.803 199.057 460.509 199.221C459.914 199.588 459.475 200.162 459.277 200.832C459.079 201.503 459.134 202.223 459.434 202.855Z" fill="#263238"/>
<path d="M443.45 232.581C443.45 232.581 450.072 231.189 452.393 229.909C453.767 229.153 454.883 228.002 455.596 226.604C455.251 228.009 454.631 229.333 453.774 230.498C452.087 232.762 443.45 234.415 443.45 234.415V232.581Z" fill="#F28F8F"/>
<path d="M445.046 214.718C445.07 214.973 445.168 215.216 445.327 215.417C445.486 215.618 445.701 215.768 445.944 215.849C446.187 215.931 446.448 215.94 446.697 215.876C446.945 215.811 447.169 215.676 447.342 215.487C447.515 215.298 447.629 215.062 447.671 214.809C447.713 214.556 447.68 214.297 447.578 214.062C447.475 213.827 447.306 213.627 447.091 213.486C446.877 213.346 446.627 213.27 446.37 213.269C446.187 213.275 446.007 213.317 445.841 213.394C445.675 213.47 445.526 213.579 445.402 213.714C445.279 213.849 445.184 214.007 445.122 214.18C445.061 214.352 445.035 214.535 445.046 214.718Z" fill="#263238"/>
<path d="M447.14 208.99L449.981 210.62C450.187 210.228 450.241 209.774 450.135 209.344C450.029 208.915 449.769 208.539 449.404 208.288C449.214 208.166 448.999 208.088 448.776 208.057C448.552 208.027 448.325 208.046 448.109 208.113C447.893 208.18 447.695 208.293 447.528 208.444C447.36 208.596 447.228 208.782 447.14 208.99Z" fill="#263238"/>
<path d="M444.05 224.272L441.016 225.404C441.076 225.612 441.178 225.806 441.316 225.974C441.454 226.141 441.625 226.278 441.818 226.377C442.011 226.476 442.222 226.534 442.439 226.547C442.655 226.561 442.872 226.53 443.076 226.457C443.479 226.277 443.802 225.954 443.982 225.551C444.162 225.148 444.186 224.692 444.05 224.272Z" fill="#F28F8F"/>
<path d="M432.854 210.201L435.446 208.118C435.33 207.936 435.175 207.78 434.994 207.662C434.812 207.544 434.608 207.465 434.393 207.432C434.179 207.399 433.961 207.412 433.752 207.469C433.543 207.527 433.349 207.629 433.182 207.767C432.836 208.06 432.611 208.472 432.551 208.921C432.49 209.371 432.598 209.827 432.854 210.201Z" fill="#263238"/>
<path d="M433.997 214.322C433.99 214.502 434.018 214.683 434.081 214.853C434.143 215.023 434.239 215.178 434.362 215.311C434.485 215.443 434.634 215.55 434.798 215.625C434.963 215.7 435.141 215.742 435.322 215.748C435.703 215.748 436.069 215.596 436.338 215.327C436.608 215.057 436.759 214.691 436.759 214.31C436.759 213.929 436.608 213.563 436.338 213.294C436.069 213.024 435.703 212.873 435.322 212.873C434.956 212.893 434.612 213.056 434.364 213.327C434.117 213.598 433.985 213.955 433.997 214.322Z" fill="#263238"/>
<path d="M441.106 213.212L440.948 221.601L436.182 220.502L441.106 213.212Z" fill="#F28F8F"/>
<path d="M477.772 221.646C479.685 219.11 483.556 224.736 485.345 228.619C487.134 232.502 487.168 234.698 485.696 236.237C484.224 237.777 481.451 236.848 478.677 233.169C475.904 229.49 476.674 223.514 477.772 221.646Z" fill="#014E7B"/>
<path opacity="0.5" d="M477.772 221.646C479.685 219.11 483.556 224.736 485.345 228.619C487.134 232.502 487.168 234.698 485.696 236.237C484.224 237.777 481.451 236.848 478.677 233.169C475.904 229.49 476.674 223.514 477.772 221.646Z" fill="black"/>
<path d="M491.288 222.393C484.496 238.241 475.044 247.172 470.799 257.372C465.241 256.998 460.905 243.561 465.048 237.822C465.048 237.822 481.326 220.197 482.798 213.269C484.111 207.122 485.866 196.979 485.718 191.761C485.66 190.911 485.303 190.109 484.711 189.497C483.002 187.652 483.002 186.18 481.904 184.154C481.055 182.569 480.115 181.98 480.387 181.618C480.739 181.242 481.22 181.011 481.734 180.974C482.248 180.936 482.757 181.093 483.16 181.414C483.946 181.989 484.65 182.667 485.254 183.429C485.464 181.394 485.132 179.34 484.292 177.475C482.402 173.196 482.866 171.023 488.628 172.54C492.25 173.502 494.514 176.513 495.057 185.195C495.309 188.809 495.332 192.435 495.125 196.051C494.492 202.741 494.095 209.714 493.269 215.295C492.912 217.735 492.247 220.121 491.288 222.393Z" fill="#FFA8A7"/>
<path d="M463.35 238.015L477.704 221.601C477.704 221.601 475.995 225.597 479.73 231.426C483.466 237.256 485.685 236.237 485.685 236.237C485.685 236.237 477.206 248.61 474.942 252.753C472.678 256.896 470.312 260.394 470.312 260.394C470.062 260.878 469.672 261.275 469.194 261.535C468.716 261.795 468.171 261.907 467.629 261.855C465.524 261.855 459.943 252.504 463.35 238.015Z" fill="#014E7B"/>
<path opacity="0.3" d="M463.35 238.015L477.704 221.601C477.704 221.601 475.995 225.597 479.73 231.426C483.466 237.256 485.685 236.237 485.685 236.237C485.685 236.237 477.206 248.61 474.942 252.753C472.678 256.896 470.312 260.394 470.312 260.394C470.062 260.878 469.672 261.275 469.194 261.535C468.716 261.795 468.171 261.907 467.629 261.855C465.524 261.855 459.943 252.504 463.35 238.015Z" fill="black"/>
<path d="M346.868 274.906L353.626 283.906L346.358 292.226L336.996 281.279L346.868 274.906Z" fill="#F28F8F"/>
<path d="M324.737 254.439C330.635 254.711 333.442 255.571 336.532 259.262C339.623 262.952 355.063 285.264 355.063 285.264C355.063 285.264 352.335 292.916 346.358 292.26L335.502 281.064L324.737 254.439Z" fill="#455A64"/>
<path d="M295.803 441.355C295.383 443.703 295.156 446.08 295.124 448.464C295.044 452.766 294.252 454.306 294.15 457.837C294.026 461.879 294.728 463.395 296.414 465.659C298.101 467.923 302.357 469.995 304.18 466.158C306.002 462.32 305.765 459.807 305.176 455.834C304.587 451.86 304.497 449.472 304.157 446.348C303.84 443.585 303.478 441.491 303.478 441.491L295.803 441.355Z" fill="#263238"/>
<path d="M308.04 407.52L293.833 407.259C294.048 416.745 295.554 432.526 295.803 441.412C295.803 443.087 295.803 454.418 296.392 457.871C297.342 463.044 303.478 462.342 303.806 459.252C304.134 456.162 303.41 442.917 303.433 441.548C303.376 435.888 306.048 420.968 307.451 410.723C307.519 410.169 307.972 407.95 308.04 407.52Z" fill="#FFBDA7"/>
<path d="M328.903 433.986C328.903 433.986 328.178 433.986 328.054 434.62C327.929 435.254 327.884 436.454 327.589 437.631C327.107 439.476 326.938 441.39 327.091 443.291C327.329 444.615 330.352 446.585 332.423 446.936C334.495 447.287 337.404 449.324 339.023 450.853C341.622 452.998 344.838 454.259 348.203 454.452C351.599 454.452 354.056 453.32 355.188 451.464C356.32 449.607 354.157 449.392 350.218 446.834L347.15 444.842C340.913 440.767 338.626 438.582 336.86 434.507L328.903 433.986Z" fill="#263238"/>
<path d="M336.906 431.767C336.804 428.824 338.298 407.203 338.298 407.203L326.084 408.584C328.982 425.813 329.208 431.688 328.88 434.201C328.819 434.433 328.792 434.674 328.801 434.914C328.801 438.31 332.593 440.076 335.593 442.306C336.725 443.189 339.747 445.906 343.256 447.094C345.52 447.875 349.72 448.226 350.252 446.789C346.675 444.049 341.785 440.472 338.932 437.336C337.529 435.82 337.008 434.688 336.906 431.767Z" fill="#FFBDA7"/>
<path d="M297.127 309.444C290.471 324.001 297.376 375.258 297.376 375.258C297.173 377.624 294.467 382.265 293.471 392.668C292.282 404.939 295.656 437.824 295.656 437.824C296.845 438.545 298.204 438.941 299.595 438.97C300.986 439 302.36 438.663 303.58 437.993C303.58 437.993 312.172 389.68 313.768 377.477C315.115 366.813 317.696 343.381 317.696 343.381L325.031 377.409C323.955 380.845 323.175 384.367 322.699 387.936C322.009 395.113 329.005 431.168 329.005 431.168C330.265 431.688 331.619 431.943 332.983 431.915C334.347 431.888 335.69 431.58 336.929 431.009C336.929 431.009 340.019 384.439 340.675 375.79C341.807 361.255 337.902 315.919 335.242 307.315L297.127 309.444Z" fill="#014E7B"/>
<path opacity="0.5" d="M297.127 309.444C290.471 324.001 297.376 375.258 297.376 375.258C297.173 377.624 294.467 382.265 293.471 392.668C292.282 404.939 295.656 437.824 295.656 437.824C296.845 438.545 298.204 438.941 299.595 438.97C300.986 439 302.36 438.663 303.58 437.993C303.58 437.993 312.172 389.68 313.768 377.477C315.115 366.813 317.696 343.381 317.696 343.381L325.031 377.409C323.955 380.845 323.175 384.367 322.699 387.936C322.009 395.113 329.005 431.168 329.005 431.168C330.265 431.688 331.619 431.943 332.983 431.915C334.347 431.888 335.69 431.58 336.929 431.009C336.929 431.009 340.019 384.439 340.675 375.79C341.807 361.255 337.902 315.919 335.242 307.315L297.127 309.444Z" fill="black"/>
<path opacity="0.2" d="M317.673 343.381L319.835 329.865C319.835 329.865 328.982 327.974 333.136 324.069C330.271 327.429 326.522 329.919 322.314 331.257L319.88 341.671L324.137 373.175L317.673 343.381Z" fill="black"/>
<path d="M300.546 264.243L309.602 266.597V247.432C304.599 246.131 300.546 249.017 300.546 253.885V264.243Z" fill="#014E7B"/>
<path opacity="0.6" d="M300.546 264.243L309.602 266.597V247.432C304.599 246.131 300.546 249.017 300.546 253.885V264.243Z" fill="black"/>
<path d="M318.477 250.172L315.228 250.104C305.312 249.866 297.456 241.32 297.671 230.996C297.671 219.744 306.387 210.62 317.186 210.518C327.986 210.461 336.793 219.574 336.849 230.781V231.913C336.578 242.248 328.371 250.387 318.477 250.172Z" fill="#014E7B"/>
<path opacity="0.6" d="M318.477 250.172L315.228 250.104C305.312 249.866 297.456 241.32 297.671 230.996C297.671 219.744 306.387 210.62 317.186 210.518C327.986 210.461 336.793 219.574 336.849 230.781V231.913C336.578 242.248 328.371 250.387 318.477 250.172Z" fill="black"/>
<path d="M303.297 215.216C303.218 214.887 303.072 214.579 302.869 214.309C302.665 214.04 302.408 213.815 302.114 213.65C301.82 213.484 301.494 213.381 301.158 213.346C300.822 213.312 300.483 213.347 300.161 213.45L301.033 216.846C300.852 216.617 300.63 216.425 300.376 216.28C300.083 216.114 299.757 216.011 299.421 215.979C299.086 215.946 298.747 215.984 298.427 216.091C298.107 216.198 297.812 216.371 297.563 216.598C297.314 216.826 297.115 217.103 296.98 217.412L301.395 220.004C301.625 219.562 301.727 219.064 301.689 218.567C302.321 218.302 302.834 217.815 303.13 217.197C303.427 216.579 303.486 215.874 303.297 215.216Z" fill="#014E7B"/>
<path opacity="0.6" d="M303.297 215.216C303.218 214.887 303.072 214.579 302.869 214.309C302.665 214.04 302.408 213.815 302.114 213.65C301.82 213.484 301.494 213.381 301.158 213.346C300.822 213.312 300.483 213.347 300.161 213.45L301.033 216.846C300.852 216.617 300.63 216.425 300.376 216.28C300.083 216.114 299.757 216.011 299.421 215.979C299.086 215.946 298.747 215.984 298.427 216.091C298.107 216.198 297.812 216.371 297.563 216.598C297.314 216.826 297.115 217.103 296.98 217.412L301.395 220.004C301.625 219.562 301.727 219.064 301.689 218.567C302.321 218.302 302.834 217.815 303.13 217.197C303.427 216.579 303.486 215.874 303.297 215.216Z" fill="black"/>
<path d="M308.651 255.22C305.603 255.634 302.579 256.216 299.595 256.964C303.104 265.567 297.603 278.857 297.603 278.857L302.799 294.852C299.21 302.198 296.256 305.843 295.033 311.832C298.339 318.284 321.669 324.442 336.861 312.681C336.861 312.681 336.374 296.346 334.438 286.826C339.408 277.125 338.604 274.272 337.585 270.887C335.219 263.02 330.442 259.997 324.748 254.451L321.352 254.088L308.651 255.22Z" fill="#37474F"/>
<path d="M303.376 301.259C306.195 298.373 312.172 297.546 312.172 297.546L306.681 294.422L300.546 279.604C303.121 274.56 304.393 268.953 304.248 263.292L300.716 262.443C301.146 270.288 297.592 278.868 297.592 278.868L302.787 294.863C299.199 302.21 296.244 305.855 295.022 311.843C297.286 316.258 308.934 320.537 320.933 319.02C304.859 317.934 300.671 304.055 303.376 301.259Z" fill="#263238"/>
<path d="M319.62 319.145L320.277 319.077C320.056 319.081 319.837 319.103 319.62 319.145Z" fill="#E6E6E6"/>
<path d="M329.559 220.547C331.506 222.336 333.94 226.207 333.748 237.527C333.578 247.149 330.601 249.538 329.095 250.228C327.589 250.919 324.703 250.523 321.884 250.047V254.032C321.884 254.032 325.597 258.152 325.371 260.824C325.144 263.495 320.073 264.571 316.417 261.956C313.841 260.005 311.554 257.699 309.625 255.107V243.006C309.625 243.006 307.972 244.693 305.097 242.157C302.833 240.052 301.972 236.497 303.772 234.573C304.234 234.117 304.801 233.782 305.423 233.597C306.045 233.411 306.703 233.382 307.339 233.51C307.975 233.639 308.57 233.922 309.071 234.334C309.572 234.746 309.964 235.275 310.213 235.875C314.527 235.423 318.728 234.212 322.62 232.298C324.809 231.245 326.636 229.566 327.872 227.475C329.107 225.383 329.694 222.973 329.559 220.547Z" fill="#FFBDA7"/>
<path d="M321.873 235.365C321.872 235.585 321.807 235.8 321.687 235.984C321.566 236.167 321.394 236.312 321.192 236.4C320.991 236.487 320.768 236.514 320.551 236.478C320.334 236.441 320.133 236.342 319.972 236.192C319.81 236.043 319.696 235.85 319.643 235.636C319.589 235.423 319.599 235.199 319.671 234.991C319.743 234.783 319.874 234.601 320.048 234.466C320.222 234.332 320.431 234.251 320.65 234.233C320.961 234.227 321.262 234.341 321.49 234.552C321.718 234.764 321.855 235.055 321.873 235.365Z" fill="#263238"/>
<path d="M322.314 243.38L325.337 244.365C325.289 244.571 325.199 244.765 325.072 244.936C324.946 245.106 324.786 245.249 324.603 245.355C324.419 245.461 324.216 245.528 324.005 245.553C323.795 245.577 323.581 245.558 323.378 245.497C322.967 245.343 322.629 245.039 322.432 244.647C322.234 244.254 322.192 243.802 322.314 243.38Z" fill="#F79776"/>
<path d="M332.808 231.03L330.057 230.09C330.101 229.906 330.182 229.734 330.296 229.584C330.411 229.434 330.555 229.309 330.72 229.219C330.886 229.128 331.069 229.073 331.257 229.057C331.445 229.042 331.634 229.066 331.812 229.128C332.183 229.266 332.49 229.537 332.674 229.888C332.858 230.239 332.906 230.646 332.808 231.03Z" fill="#263238"/>
<path d="M310.225 234.799V238.863C310.485 238.874 310.745 238.831 310.989 238.738C311.233 238.645 311.455 238.502 311.641 238.32C311.828 238.138 311.975 237.919 312.074 237.678C312.173 237.436 312.222 237.177 312.217 236.916C312.221 236.375 312.016 235.853 311.645 235.459C311.274 235.065 310.765 234.828 310.225 234.799Z" fill="#014E7B"/>
<path opacity="0.6" d="M310.225 234.799V238.863C310.485 238.874 310.745 238.831 310.989 238.738C311.233 238.645 311.455 238.502 311.641 238.32C311.828 238.138 311.975 237.919 312.074 237.678C312.173 237.436 312.222 237.177 312.217 236.916C312.221 236.375 312.016 235.853 311.645 235.459C311.274 235.065 310.765 234.828 310.225 234.799Z" fill="black"/>
<path d="M331.812 234.969C331.837 235.295 331.732 235.617 331.52 235.865C331.307 236.114 331.005 236.268 330.68 236.294C330.43 236.318 330.18 236.267 329.959 236.148C329.739 236.029 329.559 235.846 329.443 235.624C329.328 235.402 329.281 235.15 329.309 234.901C329.337 234.652 329.44 234.417 329.602 234.227C329.765 234.036 329.981 233.899 330.223 233.832C330.464 233.765 330.72 233.772 330.958 233.852C331.195 233.932 331.404 234.081 331.556 234.28C331.708 234.479 331.797 234.719 331.812 234.969Z" fill="#263238"/>
<path d="M325.359 233.328L325.337 241.206L329.004 239.995L325.359 233.328Z" fill="#F79776"/>
<path d="M321.884 250.092C318.907 249.707 312.828 247.908 311.821 245.395C312.204 246.655 312.957 247.771 313.983 248.598C315.817 250.217 321.907 251.994 321.907 251.994L321.884 250.092Z" fill="#F79776"/>
<path d="M285.66 295.452C285.66 295.452 292.928 305.775 294.173 307.123C295.418 308.47 296.278 308.017 297.625 307.417C299.268 306.753 300.955 306.205 302.674 305.775C304.938 305.221 305.368 307.27 303.172 308.73C301.587 309.794 299.776 310.247 300.523 311.119C302.072 312.521 303.869 313.623 305.821 314.367C311.187 316.484 310.768 317.548 309.783 319.28C308.923 320.797 306.387 324.057 296.833 320.208C292.871 318.612 287.302 314.096 284.675 311.152C280.883 306.953 274.963 299.425 274.963 299.425L285.66 295.452Z" fill="#FFBDA7"/>
<path d="M300.988 256.59C298.361 256.76 293.414 257.394 287.211 267.695C281.766 276.751 273.333 288.988 271.771 293.369C271.137 295.146 273.604 298.825 276.785 302.595C281.121 302.402 285.072 299.403 287.12 297.003C286.583 295.726 285.915 294.509 285.128 293.369L297.852 278.857C297.852 278.857 302.685 274.431 303.693 268.669C304.78 262.42 304.44 257.507 300.988 256.59Z" fill="#455A64"/>
<path d="M372.224 276.128L340.856 284.392L332.219 319.88L362.048 311.22L372.224 276.128Z" fill="#014E7B"/>
<path opacity="0.25" d="M372.224 276.128L340.856 284.392L332.219 319.88L362.048 311.22L372.224 276.128Z" fill="black"/>
<g opacity="0.1">
<path opacity="0.1" d="M358.052 301.259C358.577 302.355 359.413 303.272 360.455 303.896C361.498 304.52 362.701 304.823 363.915 304.768L364.142 303.987L358.052 301.259Z" fill="black"/>
</g>
<g opacity="0.1">
<path opacity="0.1" d="M362.772 281.766L363.032 280.566C363.18 279.909 361.334 279.875 358.923 280.566L354.293 281.698C351.882 282.332 349.765 283.373 349.663 284.03L349.414 285.23L362.772 281.766Z" fill="black"/>
</g>
<path d="M365.183 277.272C365.274 276.853 364.527 276.74 363.519 277.023L361.685 277.532C361.685 277.532 362.229 274.94 358.176 275.846C357.088 276.006 356.06 276.445 355.191 277.119C354.323 277.793 353.643 278.68 353.218 279.695L351.271 280.249C350.139 280.555 349.211 281.132 349.086 281.54L348.848 282.287L365.013 278.031L365.183 277.272Z" fill="#37474F"/>
<path d="M362.953 278.54C361.482 278.902 360.859 279.094 360.689 280.113C360.519 281.132 360.327 282.128 360.327 282.128L353.184 284.018C353.184 284.018 353.535 282.547 353.648 281.981C353.761 281.415 353.512 281.053 352.369 281.358L352.278 280.905L363.485 278.042L362.953 278.54Z" fill="#37474F"/>
<path d="M363.202 281.868L363.463 280.668C363.61 280.011 361.765 279.977 359.353 280.668L354.724 281.8C352.312 282.434 350.196 283.475 350.094 284.132L349.845 285.332L363.202 281.868Z" fill="#37474F"/>
<path d="M368.919 287.528C368.919 287.528 367.787 291.547 367.481 292.498C367.176 293.448 363.689 295.18 361.391 295.814C359.093 296.448 356.557 297.195 357.655 300.422C358.652 303.399 362.455 304.078 364.38 303.987C366.304 303.897 368.964 302.063 370.04 299.086C371.364 295.282 370.651 291.23 371.172 289.011C371.692 286.792 370.073 286.204 368.919 287.528Z" fill="#FFBDA7"/>
<path d="M250.093 288.467C245.791 284.132 244.252 285.819 243.708 290.573C243.507 292.567 243.023 294.522 242.271 296.38C242.137 295.393 241.866 294.429 241.467 293.516C241.278 293.022 240.909 292.619 240.435 292.385C239.96 292.152 239.415 292.107 238.909 292.26C238.49 292.429 239.01 293.392 238.909 295.282C238.829 297.637 238.06 298.938 238.614 301.44C238.807 302.381 238.659 303.361 238.195 304.202C235.931 308.504 228.472 316.45 223.242 322.178L203.375 304.236C196.583 298.123 194.387 295.373 187.833 295.814C189.883 296.592 191.772 297.743 193.402 299.21C196.447 301.78 195.723 316.484 195.723 316.484C195.723 316.484 218.272 332.649 220.627 334.189C220.966 334.415 221.317 334.619 221.657 334.811C222.77 335.392 224.047 335.579 225.279 335.342C226.512 335.106 227.629 334.46 228.449 333.51C233.26 328.008 240.278 317.175 244.297 311.549C246.134 308.826 247.772 305.973 249.198 303.014C253.228 295.01 252.787 291.184 250.093 288.467Z" fill="#914F4E"/>
<path d="M188.535 295.452C190.118 295.164 191.745 295.217 193.307 295.607C194.869 295.997 196.329 296.716 197.591 297.716C201.462 300.659 217.967 315.828 217.967 315.828C217.967 315.828 218.419 323.854 210.043 328.631L189.814 314.368L188.535 295.452Z" fill="#014E7B"/>
<path opacity="0.3" d="M188.535 295.452C190.118 295.164 191.745 295.217 193.307 295.607C194.869 295.997 196.329 296.716 197.591 297.716C201.462 300.659 217.967 315.828 217.967 315.828C217.967 315.828 218.419 323.854 210.043 328.631L189.814 314.368L188.535 295.452Z" fill="black"/>
<path d="M169.008 476.526H160.438V491.808H169.008V476.526Z" fill="#914F4E"/>
<path d="M190.153 475.711L198.723 476.017L199.153 459.841L190.153 459.535V475.711Z" fill="#914F4E"/>
<path d="M159.227 344.207C159.227 352.731 160.484 421.341 160.484 421.341C160.291 423.787 158.084 428.315 158.559 437.733C159.205 450.536 160.076 484.145 160.076 484.145C161.548 484.899 163.172 485.308 164.825 485.341C166.479 485.374 168.118 485.031 169.619 484.337C169.619 484.337 177.724 437.755 179.264 425.077C180.599 414.006 182.875 376.741 182.875 376.741L187.516 420.074C186.527 424.732 186.169 429.503 186.452 434.258C186.859 440.121 189.61 470.674 189.61 470.674C191.092 471.551 192.755 472.078 194.471 472.215C196.187 472.352 197.913 472.096 199.515 471.466C199.515 471.466 204.383 425.451 204.485 420.074C204.598 413.938 201.632 344.094 201.632 344.094L159.227 344.207Z" fill="#37474F"/>
<path d="M169.008 487.394V486.126C169.834 486.5 171.736 494.05 175.132 497.299C177.837 499.868 181.528 502.834 182.467 505.698C183.407 508.562 177.328 510.317 174.804 509.853C171.872 509.309 166.778 507.159 165.51 505.166C164.242 503.174 163.631 500.219 162.589 498.759C161.548 497.299 159.193 495.669 158.605 493.971C158.436 492.392 158.602 490.795 159.091 489.284C159.488 487.711 159.918 485.979 160.438 486.126V487.099C161.647 488.089 163.166 488.622 164.729 488.605C165.974 488.65 169.019 488.39 169.008 487.394Z" fill="#263238"/>
<path d="M198.813 473.266C199.255 473.266 199.617 473.934 200.602 475.043C202.057 476.574 203.76 477.849 205.639 478.813C208.854 480.488 215.091 483.069 217.921 484.394C219.687 485.22 219.597 487.439 217.774 488.695C215.952 489.952 211.548 490.869 206.262 489.646C203.386 488.967 199.628 486.25 197.206 486.352C194.783 486.454 190.414 486.465 188.637 485.22C186.859 483.975 187.584 481.269 188.082 478.972C188.625 476.447 189.304 472.519 190.097 472.689V473.561C191.127 475.191 196.447 475.825 198.711 474.693L198.813 473.266Z" fill="#263238"/>
<path d="M182.875 376.763C187.334 375.307 191.411 372.87 194.806 369.632C194.806 369.632 192.542 374.16 185.659 378.303L187.12 417.006L182.875 376.763Z" fill="#263238"/>
<path d="M163.687 297.716C163.687 297.716 156.986 298.327 157.461 311.107L158.944 331.483L158.808 362.047C165.102 369.19 193.051 368.669 202.617 361.47C202.617 361.47 201.632 325.325 200.987 311.413C200.523 301.53 198.247 296.55 188.535 295.463L176.581 295.984L163.687 297.716Z" fill="#014E7B"/>
<path opacity="0.3" d="M182.739 304.417L184.278 315.148L187.867 315.08L183.814 315.714L182.739 304.417Z" fill="black"/>
<path d="M142.417 341.592C145.892 313.632 153.895 299.708 163.642 298.101L162.951 315.986C158.893 325.525 155.784 335.44 153.669 345.588C152.39 352.471 150.907 364.436 151.292 370.311C151.369 371.346 151.81 372.321 152.537 373.062C154.461 375.02 155.039 376.718 156.329 378.925C157.348 380.657 158.389 381.269 158.118 381.687C157.768 382.128 157.26 382.414 156.702 382.486C156.144 382.558 155.58 382.41 155.129 382.072C154.108 381.349 153.173 380.509 152.345 379.571C152.221 382.236 152.7 384.894 153.748 387.347C156.012 392.057 155.65 394.536 149.333 393.143C145.371 392.283 142.541 388.106 141.409 378.359C141.112 374.722 141.047 371.07 141.217 367.424C141.647 358.108 141.726 347.184 142.417 341.592Z" fill="#914F4E"/>
<path d="M164.197 297.637C159.137 297.637 154.518 298.508 150.839 305.561C147.319 312.353 144.613 326.718 143.243 331.416C143.243 331.416 150.635 335.785 157.439 335.672L162.227 319.054C162.227 319.054 165.465 311.3 164.197 297.637Z" fill="#014E7B"/>
<path opacity="0.3" d="M164.197 297.637C159.137 297.637 154.518 298.508 150.839 305.561C147.319 312.353 144.613 326.718 143.243 331.416C143.243 331.416 150.635 335.785 157.439 335.672L162.227 319.054C162.227 319.054 165.465 311.3 164.197 297.637Z" fill="black"/>
<path d="M174.645 268.861C174.747 271.362 175.582 273.778 177.046 275.809C178.51 277.839 180.539 279.394 182.88 280.281C185.221 281.168 187.771 281.347 190.213 280.796C192.655 280.245 194.881 278.989 196.615 277.183C198.348 275.377 199.513 273.101 199.964 270.639C200.414 268.177 200.131 265.636 199.15 263.333C198.168 261.03 196.531 259.067 194.443 257.687C192.354 256.307 189.906 255.571 187.403 255.571C183.95 255.646 180.667 257.087 178.276 259.578C175.884 262.069 174.578 265.408 174.645 268.861Z" fill="#263238"/>
<path d="M166.529 275.506C166.529 275.506 168.487 285.083 169.268 286.656C169.778 287.619 170.642 288.346 171.679 288.682L171.532 281.89L166.529 275.506Z" fill="#263238"/>
<path d="M168.985 261.786C168.985 261.786 167.536 261.492 166.087 263.756C164.808 265.748 164.525 270.231 166.529 275.494L170.208 275.936L168.985 261.786Z" fill="#263238"/>
<path d="M171.317 275.948C170.581 276.412 169.528 274.929 168.611 273.944C167.695 272.959 164.729 271.589 163.246 274.85C161.763 278.11 164.548 282.558 166.891 283.317C170.932 284.641 171.532 281.936 171.532 281.936L171.849 297.116C177.203 305.402 189.35 305.108 184.98 296.708V292.056C186.779 292.355 188.605 292.454 190.425 292.35C193.391 291.875 195.259 289.43 196.164 286.079C197.613 280.702 198.157 276.366 196.934 265.794C195.587 254.202 182.648 254.077 175.653 258.662C168.657 263.247 171.317 275.948 171.317 275.948Z" fill="#914F4E"/>
<path d="M171.781 293.708C173.027 296.257 174.816 298.502 177.022 300.285C178.899 301.669 181.074 302.596 183.373 302.991C181.478 304.274 179.924 305.999 178.845 308.017C177.509 310.971 168.068 302.855 168.159 297.093C168.159 297.093 169.642 291.309 171.668 290.935L171.781 293.708Z" fill="#263238"/>
<path d="M183.384 302.991C183.384 302.991 186.293 301.542 184.991 296.708V292.056L186.271 292.225C187.761 293.678 188.819 295.516 189.327 297.535C189.621 298.859 190.346 305.56 189.067 306.885C187.788 308.209 185.988 303.376 183.384 302.991Z" fill="#263238"/>
<path d="M171.317 277.249C170.943 277.249 169.528 274.815 168.611 273.944C167.332 272.733 168.985 261.786 168.985 261.786C168.652 260.841 168.589 259.822 168.806 258.844C169.022 257.865 169.507 256.967 170.208 256.251C171.962 254.247 174.883 253.987 179.864 253.217C181.852 252.972 183.825 252.613 185.773 252.141C187.829 251.372 189.807 250.409 191.682 249.266C192.271 248.884 192.977 248.724 193.674 248.813C193.995 248.922 194.283 249.113 194.507 249.367C194.732 249.621 194.886 249.93 194.953 250.262C195.066 250.925 195.066 251.603 194.953 252.266C195.583 251.68 196.419 251.368 197.278 251.398C198.137 251.428 198.95 251.797 199.538 252.424C200.094 253.087 200.456 253.89 200.583 254.745C200.711 255.6 200.6 256.474 200.262 257.269C199.539 258.853 198.355 260.182 196.866 261.084C190.606 265.318 183.214 264.141 176.196 263.348C175.864 263.274 175.518 263.298 175.2 263.416C174.068 263.914 173.864 267.322 173.671 268.306C173.105 271.589 172.562 277.227 171.317 277.249Z" fill="#263238"/>
<path d="M168.985 262.363L164.525 259.861C164.66 259.552 164.859 259.275 165.108 259.048C165.357 258.82 165.651 258.647 165.971 258.541C166.291 258.434 166.63 258.396 166.966 258.428C167.302 258.461 167.627 258.563 167.921 258.729C168.514 259.098 168.95 259.673 169.146 260.343C169.343 261.014 169.285 261.733 168.985 262.363Z" fill="#263238"/>
<path d="M184.969 292.056C184.969 292.056 178.347 290.663 176.026 289.384C174.649 288.631 173.532 287.479 172.823 286.079C173.168 287.484 173.787 288.807 174.645 289.973C176.332 292.237 184.969 293.901 184.969 293.901V292.056Z" fill="#783736"/>
<path d="M182.569 273.83C182.577 274.012 182.548 274.193 182.486 274.363C182.423 274.534 182.328 274.69 182.205 274.824C182.082 274.957 181.934 275.065 181.769 275.142C181.604 275.218 181.426 275.261 181.245 275.268C180.878 275.248 180.534 275.084 180.287 274.814C180.039 274.543 179.908 274.186 179.92 273.819C179.92 273.468 180.06 273.131 180.308 272.883C180.556 272.634 180.893 272.495 181.245 272.495C181.596 272.495 181.933 272.634 182.181 272.883C182.429 273.131 182.569 273.468 182.569 273.819V273.83Z" fill="#263238"/>
<path d="M180.294 268.08L177.452 269.71C177.248 269.306 177.202 268.841 177.324 268.405C177.445 267.97 177.725 267.595 178.109 267.355C178.298 267.25 178.507 267.185 178.722 267.165C178.938 267.145 179.155 267.169 179.36 267.238C179.566 267.306 179.755 267.416 179.916 267.561C180.076 267.706 180.205 267.883 180.294 268.08Z" fill="#263238"/>
<path d="M184.369 283.781L187.403 284.969C187.343 285.178 187.241 285.371 187.103 285.539C186.964 285.706 186.793 285.842 186.6 285.94C186.406 286.038 186.195 286.095 185.979 286.107C185.762 286.119 185.546 286.086 185.342 286.011C184.929 285.83 184.598 285.5 184.418 285.087C184.237 284.673 184.22 284.207 184.369 283.781Z" fill="#783736"/>
<path d="M195.836 269.665L192.848 268.216C192.921 268.014 193.036 267.829 193.186 267.674C193.335 267.519 193.516 267.398 193.716 267.317C193.916 267.237 194.13 267.2 194.345 267.209C194.561 267.217 194.771 267.271 194.964 267.367C195.368 267.574 195.681 267.924 195.842 268.348C196.003 268.773 196.001 269.242 195.836 269.665Z" fill="#263238"/>
<path d="M193.878 273.831C193.895 274.016 193.873 274.202 193.814 274.378C193.755 274.554 193.66 274.716 193.535 274.853C193.409 274.991 193.257 275.1 193.087 275.175C192.917 275.25 192.733 275.289 192.548 275.289C192.362 275.289 192.178 275.25 192.008 275.175C191.838 275.1 191.686 274.991 191.561 274.853C191.435 274.716 191.34 274.554 191.281 274.378C191.222 274.202 191.2 274.016 191.217 273.831C191.21 273.65 191.238 273.469 191.301 273.299C191.363 273.13 191.459 272.974 191.582 272.841C191.705 272.709 191.854 272.602 192.018 272.527C192.183 272.452 192.361 272.41 192.542 272.404C192.907 272.419 193.252 272.577 193.502 272.844C193.752 273.111 193.887 273.465 193.878 273.831Z" fill="#263238"/>
<path d="M186.35 272.8L186.497 281.188L191.263 280.102L186.35 272.8Z" fill="#783736"/>
<path d="M180.52 270.367C179.64 270.367 178.797 270.716 178.175 271.338C177.553 271.96 177.203 272.804 177.203 273.683C177.203 274.563 177.553 275.407 178.175 276.029C178.797 276.651 179.64 277 180.52 277H181.12C182 277 182.843 276.651 183.465 276.029C184.087 275.407 184.437 274.563 184.437 273.683C184.437 272.804 184.087 271.96 183.465 271.338C182.843 270.716 182 270.367 181.12 270.367H180.52ZM176.592 273.683C176.583 272.635 176.99 271.625 177.724 270.876C178.459 270.127 179.46 269.699 180.509 269.688H181.12C182.082 269.814 182.964 270.285 183.604 271.014C184.244 271.743 184.596 272.68 184.596 273.65C184.596 274.619 184.244 275.556 183.604 276.285C182.964 277.014 182.082 277.485 181.12 277.612H180.52C179.48 277.606 178.484 277.19 177.749 276.454C177.014 275.719 176.598 274.723 176.592 273.683Z" fill="#263238"/>
<path d="M192.44 270.367C191.56 270.367 190.717 270.716 190.095 271.338C189.473 271.96 189.123 272.804 189.123 273.683C189.123 274.563 189.473 275.407 190.095 276.029C190.717 276.651 191.56 277 192.44 277H193.04C193.92 277 194.763 276.651 195.385 276.029C196.007 275.407 196.357 274.563 196.357 273.683C196.357 272.804 196.007 271.96 195.385 271.338C194.763 270.716 193.92 270.367 193.04 270.367H192.44ZM188.523 273.683C188.514 272.635 188.922 271.625 189.656 270.876C190.39 270.127 191.391 269.699 192.44 269.688H193.04C194.002 269.814 194.884 270.285 195.524 271.014C196.163 271.743 196.516 272.68 196.516 273.65C196.516 274.619 196.163 275.556 195.524 276.285C194.884 277.014 194.002 277.485 193.04 277.612H192.44C191.406 277.597 190.419 277.177 189.691 276.443C188.963 275.708 188.552 274.718 188.546 273.683H188.523Z" fill="#263238"/>
<path d="M184.992 272.891C185.229 272.562 185.54 272.294 185.899 272.107C186.259 271.92 186.658 271.82 187.063 271.816C187.397 271.779 187.736 271.824 188.049 271.946C188.362 272.069 188.641 272.264 188.863 272.517L189.395 272.11C189.112 271.765 188.748 271.496 188.334 271.328C187.921 271.16 187.472 271.098 187.029 271.148C186.515 271.153 186.01 271.282 185.557 271.525C185.103 271.767 184.715 272.115 184.426 272.54L184.992 272.891Z" fill="#263238"/>
<path d="M176.954 272.857H170.208V273.525H176.954V272.857Z" fill="#263238"/>
</svg>
