<svg xmlns="http://www.w3.org/2000/svg" width="900" height="600"><path d="M 900,500 V -100 H 0 v 600 z" fill="#006c35" transform="translate(0,100)"/><path d="m 9403.6676,-2218.315 h -557.3698 v -52.8431 c 25.1715,-21.759 59.3329,-51.289 59.3329,-68.3852 0,-29.53 -70.1207,-90.1444 -86.3025,-90.1444 -17.9796,0 -86.3023,62.1686 -86.3023,90.1444 0,18.6504 30.5655,45.072 55.737,66.831 l 1.7981,1.5544 v 54.3973 H 4394.5312 c 156.4232,155.4212 388.3609,153.867 854.0344,158.5295 415.3303,6.217 413.5324,6.217 3540.1973,0 v 55.9515 c -25.1715,21.759 -55.737,51.289 -55.737,68.3854 0,29.5299 66.5248,90.1442 86.3023,90.1442 12.5859,0 53.9391,-34.1925 75.5147,-63.7226 h 192.3825 c 12.5857,21.759 41.3533,34.1927 75.5147,34.1927 34.1613,0 62.9287,-13.9879 75.5145,-34.1927 h 230.1397 c 28.7676,32.6385 68.3228,34.1927 91.6965,34.1927 88.1003,-3.1084 107.8779,-48.1806 107.8779,-203.6018 -1.7981,-130.5536 -89.8983,-144.5415 -264.3011,-141.4331 z m 39.5552,262.6616 h -204.9682 c -12.5858,-21.759 -41.3532,-35.7469 -75.5145,-35.7469 -34.1614,0 -62.929,13.9879 -75.5147,35.7469 h -188.7867 c -10.7878,-15.542 -32.3632,-35.7469 -50.3429,-48.1805 v -55.9515 h 587.9353 8.9896 c -10.7878,40.4094 -12.5857,76.1563 -1.7981,104.132 z" fill="#fff" transform="matrix(0.064,0,0,0.064,0,568)"/><g transform="matrix(0.30044912,0,0,0.28558046,105.83334,11.180253) translate(1150.9934,-9.9415635)" fill="#fff"><path d="m -704.38449,564.00005 c 9.98861,-28.00001 10.98722,-53.00001 -0.99889,-44.00001 -9.98834,8 -15.98167,0 -7.99084,-9 9.98862,-13 22.97362,-17 25.97028,5 0.99862,17 -10.9875,38 -16.98055,48.00001 z" class="fil1"/><path d="m -618.48337,721.00006 c 2.99666,36 12.985,103.00001 12.985,126.00001 0.99889,24 3.99555,17 9.98861,4 5.99305,-13 4.99417,-27 3.99528,-46.00001 -1.9975,-20 -2.99639,-53 -6.99195,-98 7.99084,-6 14.98278,-16 17.97945,-22.00001 7.99083,-15 9.98833,-14 12.985,-2 5.99305,24.00001 29.96556,40.00001 61.92861,17.00001 29.96556,-21.00001 16.98056,-65.00001 3.99556,-113.00001 10.98722,2 14.98278,-7 7.99083,-19 -2.99666,-7.00001 -8.98972,-13.00001 -13.98389,-19.00001 -4.99444,-6 -9.98861,-11 -14.98277,-5 -3.99556,6 -8.98973,11 -11.98639,15 -2.99639,4.00001 -2.99639,8.00001 0.99888,18.00001 11.98639,28 19.97723,58 21.97473,75 2.99667,16 -2.99639,20 -13.98389,20 -10.98722,0 -25.97,-3 -31.96306,-27 -5.99333,-24 -8.98972,-35 -7.99083,-51 0.99889,-16 2.99639,-27 -7.99084,-43.00001 -11.98611,-16 -12.985,-13 -15.98167,-5 -1.99777,9 -5.99305,22.00001 -1.99777,37.00001 4.99444,22 7.99083,41 10.9875,54 1.99778,9 -6.99195,28 -19.97695,38 -2.99667,-30 -7.99083,-70 -9.98861,-102 16.98056,-6 7.99083,-29.00001 -5.99306,-54.00001 -9.98861,-19 -13.98389,-11 -20.97583,1 -6.99195,12 -1.99778,17 2.99639,27 -3.99528,8 2.99666,20.00001 5.99305,42.00001 0.99889,14 3.99556,54 6.99223,89 -13.98417,0 -21.97473,-9 -26.96917,-21 -10.98723,-25 -7.99084,-48 -2.99639,-63 4.99417,-15 9.98833,-38.00001 0.99889,-44.00001 -7.99084,-6 -18.97834,1 -25.97028,12 -11.98611,18.00001 -22.97362,44.00001 -23.9725,71.00001 -0.99862,11 -3.99528,32 -8.98945,40 -3.99556,8 -10.9875,9 -17.97945,-3 -11.98611,-19 -15.98166,-67 -14.98277,-92 0,-12 -2.99639,-14 -6.99195,0 -12.985,48 1.99778,100 12.985,122.00001 10.9875,22 24.97139,17 34.96,-1 14.98251,-27.00001 8.98945,-51.00001 22.97334,-91.00001 7.99083,-25 10.9875,-6 7.99083,9 -6.99194,40 -4.99416,105.00001 51.94029,104.00001 z" class="fil1"/><path d="m -575.53282,511.00004 c -2.99638,8 -0.99888,18 3.99556,24 4.99417,7 13.98389,7 19.97695,2 4.99416,-6 4.99416,-7 9.98833,1 2.99667,6 12.98528,4 15.98167,-2 1.99778,-5 4.99444,-10 1.99778,-17 -2.99667,-7 -2.99667,-5 -4.99417,3 -1.99778,13 -13.98389,10 -14.98278,-6 0,-15 -2.99667,-7 -6.99194,3 -6.99195,15 -16.98056,12 -16.98056,-1 0,-11 -2.99667,-20 -7.99084,-7 z" class="fil1"/><path d="m -738.34533,812.00006 c 28.96667,-35 65.92417,-53 84.90223,-59 11.98611,-4 17.97917,-9 17.97917,3 0.99889,11 0,12 -9.98834,15 -22.97361,6 -70.91833,30 -86.9,42.00001 -7.99084,6 -17.97945,13 -5.99306,-1.00001 z" class="fil1"/><path d="m -717.36949,875.00007 c 0.99889,10 0.99889,17 0.99889,21 0,7 -3.99556,14 -5.99334,23 -11.98611,43.00001 5.99334,64.00001 15.98167,48.00001 8.98972,-16 13.98389,-14 12.985,-1 -0.99861,43.00002 -41.95167,46.00002 -44.94806,10 -4.99444,-57.00001 7.99084,-66.00001 11.98611,-85.00001 2.99667,-13 6.99195,-23 8.98973,-16 z" class="fil1"/><path d="m -506.61198,789.00006 c -3.99555,1 -7.99083,3 -10.9875,4 -17.97917,5 -20.97583,-2 -19.97694,-13 0.99889,-11 1.99777,-14 13.98389,-9 4.99416,2 10.98722,9 16.98055,18 l 26.96889,-10 c -4.99416,-11 -11.98611,-20 -22.97361,-31 -17.97917,-18 -32.96195,-19 -47.94472,3 -13.98389,21 -12.98528,26 -11.98639,45 0.99888,19.00001 -2.99639,26.00001 11.98639,31.00001 13.98389,5 19.97694,3 28.96666,0 6.99195,-2 16.98028,-5 26.9689,-9 1.99777,10 0.99888,21 -4.99417,29 -36.9575,44 -93.89195,76 -118.86334,47 -13.98389,-16 -19.97695,-41 -15.98167,-71 3.99555,-25.00001 -3.99528,-14.00001 -6.99195,-5 -8.98944,29 -11.98611,71 0,92 16.98056,29.00001 43.94945,42.00001 86.90001,23 42.95056,-19 84.90223,-53 82.90473,-100 0,-9 -0.99889,-17 -0.99889,-23.00001 3.99528,-2 10.98722,-7 15.98167,-9 0.99889,16.00001 -0.99889,36.00001 0,52.00001 1.9975,51 -17.97945,66 -35.95862,80 -24.97139,20.00001 -58.93222,33.00001 -87.89889,38.00001 -68.92084,10 -84.90223,-34.00001 -83.90362,-93.00001 0,-9 3.99556,-15 3.99556,-28 -0.99889,-25 -3.99556,-21 -11.98612,4 -6.99194,24 -15.98166,80 6.99195,126.00001 23.97222,46.00002 104.87917,33.00002 167.80668,3 61.92889,-30 68.92084,-87.00001 65.92417,-144.00001 0,-15 -0.99889,-31.00001 -1.9975,-48.00001 1.9975,-1 2.99639,-3 3.99528,-4 8.98972,29.00001 50.94139,21 63.92639,4 6.99195,-8 6.99195,-9 12.985,0 8.98973,13 39.95417,17 47.94501,-1 6.99194,-19 5.99305,-37 3.99528,-51 -1.99778,-14 -4.99417,-13 -13.98389,-6 -9.98862,8 -1.99778,9 -0.99889,19 3.99555,38 -28.96667,35 -32.96195,-4 -1.99778,-24 -5.99306,-15 -8.98972,-4 -13.98389,47 -54.93667,56 -50.9414,2 0.99889,-16 -8.98972,-11 -13.98389,-5 -4.99416,4 -8.98972,9 -13.98389,12 -2.99666,-44 -5.99305,-94.00001 -10.9875,-154.00001 11.98639,15 22.97362,-2 14.98278,-19 -5.99305,-13 -14.98278,-42.00001 -20.97583,-58.00001 -4.99417,-16 -7.99084,-11 -20.97584,2 -11.98611,14 -9.98833,17 -3.99528,31 -1.99777,17.00001 0.99889,34.00001 4.99417,69.00001 2.99667,25 10.9875,77.00001 14.98278,143.00001 -5.99306,3 -14.98278,9 -20.97584,12 z" class="fil1"/><path d="m -363.77641,859.00007 c 1.99778,7 0.99889,23 -1.99778,30 -3.99528,9 0,13 5.99306,2 5.99305,-12 9.98861,-26 6.99194,-40 -0.99889,-10 -0.99889,-13 -9.98833,-17 -9.98861,-4 -12.98528,2 -15.98167,10 -3.99555,10 0.99889,21 14.98278,15 z" class="fil1"/><path d="m -336.80752,639.00005 c -11.98611,15 -20.97583,37 -3.99528,50.00001 8.98945,8 27.96778,-1 34.95973,-16.00001 6.99194,-16 3.99528,-18 -7.99084,-5 -16.98055,19 -33.96083,2 -15.98166,-24 11.98611,-18 4.99416,-22 -6.99195,-5 z" class="fil1"/><path d="m -310.83724,550.00004 c 1.9975,-4 3.99528,-9 4.99417,-13 1.99778,-6 -2.99667,-12 -6.99195,-3 -2.99666,7 -3.99555,12 1.99778,16 l -10.9875,19.00001 c -12.985,-11.00001 -12.985,-27.00001 -7.99083,-41.00001 11.98611,-31 51.94028,-27 40.95278,13 -0.99861,6 -3.99528,14 -7.99056,22.00001 5.99306,8 2.99639,18 -8.98972,16 -12.985,21 -37.95639,44 -80.90695,63 -19.97695,9 -22.97362,2 -7.99084,-7 28.96667,-19 55.93556,-42 72.91612,-66 z" class="fil1"/><path d="m -264.89029,554.00004 c -15.98167,45.00001 -14.98278,88.00001 17.97945,125.00001 18.97805,21.00001 32.96194,11.00001 40.95278,-12 8.98972,-22 14.98278,-44 20.97583,-59 5.99306,-15 10.9875,-12 9.98861,2 -2.99666,28 -4.99444,73 22.97334,90.00001 27.96806,17 70.918532,-12 85.901283,-42.00001 44.948282,60.00001 84.902313,32.00001 89.896563,-26 0.998834,-18 -6.991945,-57 -11.986223,-68 -4.9942505,-12.00001 -1.9976947,-12.00001 4.994278,-6.00001 6.991945,7.00001 18.978141,11.00001 12.985057,-9 -6.991973,-19 -14.982779,-30 -25.9701135,-39 -9.9885285,-9 -11.9862232,-4 -15.9816125,3 -3.995417,7 -2.996556,9 -8.989667,14 -5.993112,6 -4.994251,9 0,20 16.9804733,44.00001 32.962058,108.00001 5.993111,114.00001 -24.971279,5 -40.952892,-49 -41.951725,-73 -0.998861,-32.00001 -4.994251,-59.00001 -10.987362,-76.00001 -6.991945,-17 -8.98964,-20 -13.983918,-11 -3.995389,7 -4.99425,12 -8.98964,19 -3.995417,7 0,9 2.996556,23 14.982751,70.00001 12.985057,102.00001 -18.978167,120.00001 -31.96314,19 -48.9437,1 -48.9437,-21 -0.99889,-22 -0.99889,-49 1.99778,-69 1.9975,-20.00001 6.99194,-23.00001 0,-33.00001 -6.99195,-11 -12.985,-7 -21.97473,6 -19.97694,28.00001 -39.95417,75.00001 -46.94611,97.00001 -6.99195,23 -20.97584,15 -30.96417,-4 -10.9875,-23 -9.98861,-64 -5.99333,-80.00001 3.99555,-16 1.99777,-23 -4.99417,-5 z" class="fil1"/><path d="m -129.04667,515.00004 c -6.99194,7 -6.99194,8 -0.99889,17 5.99334,7 14.98278,29 11.98639,52.00001 -0.99889,10 0.99889,20 5.99306,2 3.99539,-18 2.99667,-43.00001 -1.99778,-58.00001 -4.99417,-15 -10.98722,-19 -14.98278,-13 z" class="fil1"/><path d="m 15.78676,774.00006 c 6.991945,-2 13.983918,-3 21.974696,-5 20.975863,-5 8.989668,-7 -4.99425,-16 -14.982751,-9 -20.975863,-9 -19.977002,1 0.998861,6 0.998861,12 2.996556,20 l -25.970113,8 c -16.980474,-25 -5.993112,-43 6.9919447,-62 15.9816123,-23 41.9517253,-16 71.9172563,5 29.965502,21 17.979306,54 -10.987362,71 -6.991945,4 -15.981613,8 -26.968975,12 2.996556,7.00001 -0.998833,9.00001 -9.988501,3 -25.9701129,9.00001 -59.931032,22.00001 -83.903451,35.00001 28.966669,2 148.828734,0 172.801151,-3 23.97242,-2 19.977,2 12.98506,23 -6.99197,20 -14.98275,18 -34.959782,21 -31.963197,6 -78.9091731,20 -112.870092,34 -33.96092,14 -21.974724,39.00001 12.985056,52.00001 26.968947,7 23.972391,10 18.9781405,26 -3.9953892,15.00002 -3.9953892,19.00002 -36.9574475,14.00002 -80.906865,-13 -109.873535,-58.00002 -122.858535,-93.00003 -49.94251,71.00001 -98.8864,110.00003 -144.83335,98.00003 -22.97361,-5 -33.96111,-26.00002 -35.95861,-52.00002 -31.96334,15 -68.92084,28 -116.86557,42.00002 -10.9875,4 -19.97694,-1 -4.99416,-8 31.96305,-16.00002 81.90556,-43.00002 122.85862,-72.00003 3.99528,-18 12.985,-43 21.97472,-61 4.99417,-11 7.99056,-7 7.99056,2 0,7 -1.9975,25 -0.99861,38 6.99194,-6 16.98028,-12 21.97444,-17 27.96806,-25 58.93223,-41 37.95639,-81.00001 -8.98972,-18 -15.98166,-31 -18.97805,-39 -17.97945,-7 -12.985,-17 -4.99417,-34 7.99056,-17 10.98722,-21 26.96889,-2 22.97361,27 25.97,39 9.98834,37 24.97139,64.00001 18.97833,97.00001 -19.97695,135.00001 -17.97917,19 -36.9575,34.00001 -58.93223,46.00001 -1.9975,17 4.99445,34 36.95751,29 41.95167,-6 88.89778,-61.00001 108.87473,-103.00001 -8.98973,-35 -28.96667,-98.00001 -40.95278,-130.00001 -5.99306,-16 0,-23 4.99416,-36 5.99306,-13 8.98973,-21 15.98167,-3 6.99195,17 28.96667,60 38.95528,111.00001 10.98722,51 8.98945,95 34.95973,119.00001 11.986136,11 26.968888,18 42.9505,22 -11.986223,-34.00001 12.985057,-60.00001 45.947115,-72.00001 -19.977002,-19 -50.941365,-16 -85.901145,-18 -25.97009,-1 -22.9737,-4 -15.98147,-27 6.99194,-23 14.98261,-26 33.960776,-34.00001 25.970113,-10 51.940226,-20 78.909201,-28 z" class="fil1"/><path d="m -100.07992,733.00006 c -1.99769,14 0.998865,23 5.993116,30 4.99425,7 14.982751,6 17.979307,-2 2.996555,-9 4.99425,-10 10.987362,-3 6.991945,7 29.965502,1 18.978168,-34 -4.994251,-14 -6.991973,-11 -6.991973,5 0,25 -7.990806,25 -16.980446,1 -2.996556,-9 -6.991945,-9 -7.990806,3 0,23 -9.988501,26 -15.981612,3 -1.997695,-10 -3.99539,-18 -5.993116,-3 z" class="fil1"/><path d="m 195.57986,515.00004 c -3.99542,8 -6.99195,14 0.99883,20 7.99081,6 19.97703,22 14.98278,40.00001 -2.99656,14 0,25 8.98964,5 8.98967,-21.00001 1.99769,-46.00001 -6.99195,-62.00001 -7.9908,-14 -12.98505,-11 -17.9793,-3 z" class="fil1"/><path d="m 270.49364,880.00007 c -8.98964,-45 -49.94253,-117.00001 -110.8724,-211.00002 -1.99772,-25 -2.99655,-48 -2.99655,-69 8.98967,10 14.98275,4 11.98619,-9 -5.99311,-23 -14.98275,-42.00001 -25.97011,-68.00001 -3.99539,-11 -14.98275,-14 -19.977,2 -6.99197,19 -7.99081,23 0.99886,36 -0.99886,14.00001 3.99539,38.00001 5.99308,60.00001 -10.98736,-16 -24.97125,-36 -35.958611,-53 16.980451,7 26.968951,2 11.986191,-14.00001 -14.982746,-17 -35.958609,-34 -48.943666,-46 -12.985056,-12 -18.978168,-4 -16.980445,7 0.998833,11 1.997694,19 0.998833,28 -0.998833,9 1.997722,15 14.982779,20.00001 25.970113,34 51.940229,69 75.912619,105 2.99655,30.00001 8.98967,63.00001 11.98622,90.00001 7.99081,64.00001 19.977,147.00001 9.9885,183.00002 -7.9908,27 0,39 12.98506,-2 11.98619,-41.00001 10.98736,-80.00001 2.99655,-141.00002 -2.99655,-24 -3.99538,-54 -6.99197,-82 41.95173,65 79.90806,127.00001 96.88851,170.00001 8.98967,23 16.98047,28 10.98736,-6 z" class="fil1"/><path d="m 203.57066,628.00005 c 3.99539,12 8.98964,18 11.9862,3 1.99769,-13 5.99311,-17 7.99081,-3 2.99655,14 10.98736,12 12.98505,-1 2.99656,-13 6.99195,-20 8.98967,-6 1.99769,15 0.99883,20 -0.99886,25 -0.99886,4 -8.98964,9 -14.98275,3 -6.99198,-6 -8.98967,-6 -13.98392,-1 -10.98736,10 -14.98275,3 -16.98045,-11 -0.99886,-12 2.99653,-17 4.99425,-9 z" class="fil1"/><path d="m 42.755734,968.00008 c 9.988501,-6 14.982752,-11 22.973558,-14 7.990806,-4 13.98389,-3 7.990806,14 -5.993112,20 -2.996556,26 9.988501,21 11.986195,-4 18.978171,-9 28.966671,-13 8.98964,-4 18.97814,-4 4.99425,7 -10.98736,9 -26.968976,21.00002 -35.958616,23.00002 -19.977029,5 -29.96553,-3 -25.970113,-19.00002 3.995389,-15 6.991945,-21 -4.99425,-16 -13.983918,6 -12.985085,0 -7.990807,-3 z" class="fil1"/><path d="m 293.4672,586.00005 c 7.99081,7 16.98047,7 11.98622,-8 -4.99425,-15 -8.98967,-33.00001 -13.98392,-50.00001 -4.99425,-17 -7.9908,-21 -13.98389,-13 -6.99197,9 -11.98622,12 -16.98047,18 -4.99425,5 -5.99311,16 0,26 21.97472,151.00002 22.97356,218.00002 25.97011,274.00003 2.99656,56 10.98737,82 -23.97241,120.00001 -37.95631,41 -60.9299,51.00002 -77.91034,55.00002 -20.97587,6 -28.96667,15 2.99655,13 46.94598,-3 53.93792,-4 91.89426,-49.00002 21.9747,-24 32.96206,-56.00001 30.96436,-130.00001 C 308.44995,712.00006 290.47064,656.00005 293.4672,586.00005 Z" class="fil1"/><path d="m 362.38787,591.00005 c 13.98389,7 28.96664,11 17.97928,-6 -10.98733,-16 -19.977,-43.00001 -25.97011,-63.00001 -6.99192,-20 -8.98964,-19 -19.97698,-2 -16.98047,26 -1.99769,51.00001 1.9977,81.00001 13.98389,107.00001 27.96781,216.00002 31.96319,245.00002 3.99542,32 8.98967,53 0.99887,88 -2.99656,11.00001 0.99883,14.00001 7.9908,1 27.96778,-53 8.98964,-99 5.99309,-129.00001 -4.99425,-46 -20.97584,-168.00001 -23.97239,-217.00001" class="fil2 str1"/><path d="m 431.30857,672.00005 c -1.99769,9 -13.98389,9 -12.98503,-1 0.99884,-10 0,-8 0,-16 -0.99886,-8 8.98964,-13 13.98389,-6 5.99311,7 15.98161,29 18.97817,37 3.99539,8.00001 5.99308,6.00001 5.99308,-5 -0.99883,-13 -2.99652,-25 -1.99769,-34 0.99886,-5 3.99542,-11 9.98853,-16 6.99194,-5 10.98733,-6 13.98389,3 1.99772,8 7.9908,9 4.99425,16 -3.99539,10 -12.98506,-10 -18.97814,4 -2.99656,10 0,38.00001 -0.99886,48.00001 0,9 -3.99539,22 -10.98737,7 -4.99425,-10 -11.98619,-27.00001 -21.97472,-37.00001 z" class="fil1"/><path d="m 428.31204,795.00006 c 0,-7 2.99653,-9 14.98275,-19 9.9885,-8 37.95634,-28 46.94598,-37 8.98964,-9 15.98161,-17 17.97931,-6 0.99886,11 2.99655,15 -7.99081,21 -10.98736,5 -39.954,23 -48.94367,30 -9.9885,8 -22.97356,18 -22.97356,11 z" class="fil1"/><path d="m 701.99709,874.00007 c -1.99769,-14 -5.99311,-28 -23.97242,-55 -17.9793,-26.00001 -33.96092,-50.00001 -49.94253,-73.00001 -4.99425,-60.00001 -11.98619,-124.00001 -11.98619,-158.00001 7.99078,8 13.98389,0 9.9885,-13 -3.99542,-13.00001 -11.98623,-48.00001 -17.97931,-63.00001 -4.99425,-14 -10.98736,-11 -18.97817,2 -6.99194,13 -11.98619,19 -6.99194,29 1.99769,58.00001 9.9885,114.00001 18.97814,165.00002 -15.98161,-22.00001 -30.96437,-43.00001 -44.94826,-62.00001 -0.99886,-22 -2.99655,-44 -3.99541,-66 8.98966,7 12.98505,5 7.9908,-8 -3.99539,-14.00001 -14.98275,-43.00001 -19.977,-56.00001 -4.99425,-13 -7.9908,-13 -14.98275,-3 -10.98736,17 -13.98392,29 -4.99428,45 0.99886,14.00001 2.99656,29.00001 3.99542,42.00001 -8.98967,-12 -16.98047,-24 -23.97242,-35 8.98967,5 15.98161,-3.00001 5.99311,-12.00001 -8.98966,-9 -27.96783,-24 -35.95861,-35 -8.98967,-11 -16.98048,-11 -16.98048,-1 0,10 0.99887,19 0,28 -1.99769,8 -1.99769,16 9.98851,30.00001 22.97358,28 44.94828,57 65.92414,84 7.99081,100.00001 12.98506,164.00002 10.98736,204.00002 -0.99886,24 -8.98967,38 -21.97472,42 -12.98506,5 -25.97012,-4 -37.95631,-22 -21.97472,-32 -29.96553,-26 -46.94598,2 -15.98161,26 -26.96897,48 -35.95861,67.00001 -7.99081,18 -21.97472,34 -34.95978,10 -11.98622,-24 -13.98392,-51.00001 -12.98506,-70.00001 0,-19 -2.99655,-34 -9.9885,-4 -17.97931,74.00001 -6.99197,90.00001 12.98506,106.00001 24.97125,22.00002 32.96206,24.00002 45.94711,5 25.97012,-36 32.96206,-68.00001 47.94484,-86.00001 11.9862,-14 11.9862,-3 17.97931,4 14.98275,19 27.9678,26.00001 48.94367,29.00001 20.97586,4 58.9322,-14.00001 55.93564,-84.00001 -1.99769,-42 -4.99428,-99.00001 -8.98967,-160.00001 19.97701,28 37.95634,53 51.94023,73 6.99194,40.00001 10.98736,76.00001 8.98967,105.00001 -1.99773,33 4.99425,33 11.98619,-1 1.9977,-14 1.9977,-43 -0.99883,-78.00001 26.96895,36.00001 42.95056,60.00001 53.93792,77.00001 11.9862,21 18.97817,39 15.98161,-4 z" class="fil1"/><path d="m 644.06375,543.00004 c -5.99311,10 -4.99425,12 1.9977,23.00001 6.99197,12 12.98506,34 12.98506,51 0,17 5.99311,15 8.98966,-1 2.99656,-15 1.9977,-45 -6.99197,-66.00001 -8.98964,-22 -11.98619,-14 -16.98045,-7 z" class="fil1"/><path d="m 724.97065,575.00005 c 10.98736,10 16.98045,7 9.9885,-10 -7.99081,-17.00001 -15.98161,-35.00001 -22.97356,-51.00001 -7.9908,-17 -9.9885,-13 -18.97816,-1 -9.98851,12 -10.98737,21 -6.99195,28 18.97817,159.00002 27.96781,242.00002 29.9655,290.00003 3.99542,70 -12.98505,109.00001 -80.90689,154.00001 -21.9747,15.00002 -46.94595,32.00002 5.99311,19.00002 51.94023,-13.00002 107.87587,-48.00002 101.88276,-193.00004 -4.99425,-130.00001 -21.97473,-187.00001 -17.97931,-236.00001 z" class="fil1"/><path class="fil1" d="m 481.62438,787.13315 c -3.99539,5.93858 -6.99194,10.3925 0.99886,14.84644 7.99081,4.45392 19.977,16.33109 14.98275,29.69287 -2.99655,10.3925 0,18.55805 8.98967,3.71161 8.98964,-15.58875 1.99769,-34.14681 -6.99197,-46.02395 -7.99081,-10.39253 -12.98506,-8.16556 -17.97931,-2.22697 z"/><path d="m 536.53269,974.99273 c 2.86796,3.65044 4.72325,7.02825 -0.23015,13.02619 -4.69495,4.30192 -8.00197,6.67062 -12.6969,10.97263 -2.21648,3.78135 -3.63273,9.51725 3.14768,11.34425 12.51985,3.5194 36.15103,-12.12885 36.15103,-12.52185 4.69493,-3.51946 3.12994,-10.16886 2.73693,-10.16886 -2.73693,-3.12997 -8.90482,-1.2711 -13.0545,-1.77744 -1.97571,0 -3.13767,-4.10866 -0.0537,-9.84458 2.57408,-3.56901 3.49468,-5.75362 5.24022,-10.15113 1.95446,-4.30196 0.27618,-7.17342 -6.76626,-9.52093 -7.17342,-1.30297 -10.03784,-0.65148 -17.99375,0 -4.30191,0.9135 -5.77132,2.8361 -6.5538,8.05153 0.30804,7.90989 5.11981,7.46021 10.07325,10.59019 z" fill-rule="evenodd"/></g></svg>