<svg width="545" height="363" viewBox="0 0 545 363" fill="none" xmlns="http://www.w3.org/2000/svg">
<path d="M503.122 220.864L493.588 221.067L488.749 221.147C487.128 221.183 485.5 221.147 483.88 221.19H483.56V220.864L483.517 212.718V212.355H483.88L493.501 212.399C496.713 212.399 499.917 212.478 503.122 212.515H503.326V212.718C503.326 214.097 503.267 215.47 503.231 216.827L503.122 220.864ZM503.122 220.864L503.02 216.762C502.984 215.411 502.94 214.076 502.926 212.74L503.122 212.943C499.917 212.979 496.713 213.059 493.501 213.059L483.88 213.103L484.243 212.74V220.864L483.916 220.544C485.5 220.544 487.085 220.544 488.676 220.581L493.407 220.704L503.122 220.864Z" fill="#EBEBEB"/>
<path d="M492.389 231.108L482.855 231.311L478.008 231.391C476.395 231.391 474.767 231.391 473.147 231.434H472.827V231.108V222.984V222.621H473.19L482.812 222.671C486.016 222.671 489.228 222.751 492.433 222.788H492.636V222.984C492.636 224.363 492.578 225.735 492.542 227.093L492.389 231.108ZM492.389 231.108L492.287 227.006C492.251 225.655 492.207 224.319 492.193 222.984L492.389 223.187C489.184 223.223 485.973 223.303 482.768 223.303L473.147 223.347L473.51 222.984V231.108L473.183 230.788C474.767 230.788 476.351 230.788 477.943 230.824L482.717 230.911L492.389 231.108Z" fill="#EBEBEB"/>
<path d="M513.855 231.108L504.321 231.311L499.482 231.391C497.861 231.391 496.233 231.391 494.613 231.434H494.293V231.108L494.25 222.984V222.621H494.613L504.234 222.671C507.446 222.671 510.65 222.751 513.855 222.788H514.058V222.984C514.058 224.363 513.993 225.735 513.964 227.093L513.855 231.108ZM513.855 231.108L513.753 227.006C513.753 225.655 513.673 224.319 513.659 222.984L513.855 223.187C510.65 223.223 507.446 223.303 504.234 223.303L494.613 223.347L494.976 222.984V231.108L494.649 230.788C496.241 230.788 497.817 230.788 499.409 230.824L504.19 230.911L513.855 231.108Z" fill="#EBEBEB"/>
<path d="M228.748 124.197L219.214 124.4L214.374 124.48C212.754 124.48 211.126 124.48 209.505 124.48H209.186V124.153L209.142 116.029V115.666H209.505L219.126 115.71C222.338 115.71 225.543 115.789 228.748 115.826H228.951V116.022C228.951 117.401 228.886 118.766 228.849 120.124L228.748 124.197ZM228.748 124.197L228.646 120.087C228.646 118.737 228.566 117.401 228.551 116.073L228.748 116.269C225.543 116.269 222.338 116.385 219.126 116.385L209.505 116.436L209.869 116.073L209.832 124.197L209.505 123.87C211.09 123.87 212.674 123.87 214.265 123.913L219.047 123.993L228.748 124.197Z" fill="#EBEBEB"/>
<path d="M218 134.441L208.466 134.644L203.619 134.724C202.006 134.724 200.378 134.724 198.758 134.76H198.438V134.433L198.38 126.324V125.961H198.743L208.364 126.004C211.569 126.004 214.781 126.084 217.985 126.121H218.189V126.324C218.189 127.703 218.131 129.068 218.094 130.426L218 134.441ZM218 134.441L217.898 130.331C217.862 128.981 217.818 127.645 217.804 126.317L218 126.513C214.795 126.549 211.583 126.629 208.379 126.629L198.758 126.68L199.121 126.317L199.107 134.441L198.78 134.114C200.364 134.114 201.948 134.114 203.539 134.157L208.313 134.237L218 134.441Z" fill="#EBEBEB"/>
<path d="M239.48 134.441L229.946 134.644L225.107 134.724C223.486 134.724 221.866 134.724 220.238 134.76H219.918V134.433L219.875 126.324V125.961H220.238L229.859 126.004C233.071 126.004 236.275 126.084 239.48 126.121H239.683V126.324C239.683 127.703 239.618 129.068 239.589 130.426L239.48 134.441ZM239.48 134.441L239.378 130.331C239.378 128.981 239.298 127.645 239.284 126.317L239.48 126.513C236.275 126.549 233.071 126.629 229.859 126.629L220.238 126.68L220.601 126.317L220.565 134.441L220.238 134.114C221.829 134.114 223.406 134.114 224.998 134.157L229.779 134.237L239.48 134.441Z" fill="#EBEBEB"/>
<path d="M71.8526 177.95L62.3188 178.153L57.4719 178.233C55.8587 178.233 54.231 178.233 52.6105 178.269H52.3198V177.943V169.819V169.456H52.6832L62.3042 169.499C65.5088 169.499 68.7207 169.579 71.9253 169.615H72.1288V169.811C72.1288 171.191 72.0706 172.556 72.0343 173.913L71.8526 177.95ZM71.8526 177.95L71.7509 173.841C71.7509 172.49 71.671 171.154 71.6564 169.826L71.8526 170.022C68.648 170.058 65.4362 170.138 62.2316 170.138L52.6105 170.189L52.9738 169.826L52.9375 177.95L52.6105 177.623C54.1946 177.623 55.7788 177.623 57.3702 177.667L62.1444 177.746L71.8526 177.95Z" fill="#EBEBEB"/>
<path d="M390.845 124.189L381.311 124.393L376.471 124.473C374.851 124.509 373.223 124.473 371.603 124.509H371.283V124.182L371.239 116.058V115.695H371.603L381.224 115.739C384.436 115.739 387.64 115.826 390.845 115.862H391.048V116.058C391.048 117.438 390.99 118.81 390.954 120.16L390.845 124.189ZM390.845 124.189L390.743 120.088C390.707 118.73 390.663 117.394 390.649 116.066L390.845 116.262C387.64 116.298 384.436 116.378 381.224 116.385L371.603 116.429L371.966 116.066L371.93 124.189L371.603 123.863C373.187 123.863 374.771 123.863 376.362 123.906L381.144 123.986L390.845 124.189Z" fill="#EBEBEB"/>
<path d="M502.011 45.2877L492.477 45.491L487.63 45.5709C486.017 45.5709 484.389 45.5709 482.768 45.6144H482.449V45.2877V37.1638V36.8008H482.812L492.433 36.8443C495.638 36.8443 498.85 36.9315 502.054 36.9678H502.258V37.1638C502.258 38.5432 502.2 39.9153 502.163 41.2657L502.011 45.2877ZM502.011 45.2877L501.909 41.1858C501.873 39.8282 501.829 38.4924 501.814 37.1638L502.011 37.3598C498.806 37.3598 495.594 37.476 492.39 37.4832L482.768 37.5268L483.132 37.1638L483.095 45.2877L482.768 44.961C484.353 44.961 485.937 44.961 487.528 45.0046L492.302 45.0844L502.011 45.2877Z" fill="#EBEBEB"/>
<path d="M512.743 55.5314L503.209 55.7346L498.37 55.8145C496.749 55.8508 495.122 55.8145 493.501 55.8581H493.181V55.5314L493.138 47.4074V47.0444H493.501L503.122 47.088C506.334 47.088 509.539 47.1751 512.743 47.2114H512.947V47.4074C512.947 48.7868 512.881 50.159 512.845 51.5093L512.743 55.5314ZM512.743 55.5314L512.641 51.4295C512.641 50.0718 512.562 48.736 512.547 47.4074L512.743 47.6035C509.539 47.6398 506.334 47.7196 503.122 47.7269L493.501 47.7704L493.864 47.4074V55.5314L493.537 55.2047C495.121 55.2047 496.706 55.2047 498.297 55.2482L503.079 55.3281L512.743 55.5314Z" fill="#EBEBEB"/>
<path d="M50.387 45.295L40.8459 45.4983L36.0063 45.5782C34.3931 45.5782 32.7653 45.5782 31.1449 45.6217H30.8179V45.295V37.1711V36.8081H31.1885L40.8095 36.8589C44.0141 36.8589 47.2187 36.9388 50.4306 36.9751H50.6268V37.1711C50.6268 38.5505 50.5614 39.9226 50.5323 41.2803L50.387 45.295ZM50.387 45.295L50.278 41.1931C50.278 39.8428 50.1981 38.4997 50.1835 37.1711L50.387 37.3671C47.1751 37.4107 43.9705 37.4833 40.7659 37.4905L31.1449 37.5341L31.5082 37.1711L31.4646 45.295L31.1449 45.0119C32.729 45.0119 34.3059 45.0119 35.8973 45.0119L40.6787 45.0918L50.387 45.295Z" fill="#EBEBEB"/>
<path d="M502.577 130.549L506.857 123.659L504.742 122.352C504.44 122.162 504.197 121.892 504.039 121.571C503.881 121.251 503.815 120.893 503.849 120.537C503.87 120.134 503.87 119.729 503.849 119.325C503.838 118.969 503.927 118.616 504.105 118.307C504.284 117.998 504.545 117.745 504.859 117.575L507.039 116.399L503.202 109.255L501.022 110.424C500.707 110.593 500.35 110.67 499.993 110.647C499.636 110.624 499.293 110.501 499.002 110.294C498.675 110.069 498.326 109.851 497.97 109.655C497.656 109.487 497.394 109.235 497.214 108.927C497.035 108.62 496.944 108.268 496.953 107.912L497.033 105.429L488.923 105.175L488.85 107.665C488.835 108.022 488.721 108.368 488.521 108.664C488.321 108.96 488.042 109.195 487.717 109.343L487.186 109.611C487.005 109.706 486.83 109.807 486.663 109.909C486.361 110.096 486.012 110.195 485.657 110.195C485.301 110.195 484.952 110.096 484.65 109.909L482.521 108.595L478.241 115.485L480.363 116.791C480.664 116.983 480.907 117.254 481.064 117.574C481.222 117.894 481.289 118.251 481.257 118.606C481.22 119.009 481.206 119.414 481.213 119.819C481.224 120.173 481.136 120.524 480.959 120.832C480.782 121.139 480.522 121.392 480.21 121.561L478.03 122.737L481.867 129.888L484.047 128.712C484.362 128.547 484.717 128.471 485.072 128.494C485.427 128.517 485.769 128.638 486.06 128.843C486.39 129.071 486.732 129.282 487.085 129.475C487.402 129.641 487.665 129.893 487.845 130.203C488.025 130.512 488.114 130.866 488.102 131.224L488.029 133.707L496.139 133.961L496.219 131.471C496.233 131.116 496.346 130.771 496.545 130.476C496.744 130.182 497.021 129.948 497.345 129.801L497.883 129.533L498.406 129.235C498.71 129.048 499.059 128.949 499.416 128.949C499.773 128.949 500.122 129.048 500.426 129.235L502.577 130.549ZM495.71 125.467C494.551 126.088 493.234 126.351 491.925 126.224C490.616 126.097 489.375 125.585 488.357 124.753C487.34 123.921 486.592 122.806 486.209 121.549C485.825 120.292 485.823 118.95 486.203 117.693C486.583 116.435 487.328 115.318 488.343 114.483C489.359 113.648 490.599 113.133 491.907 113.002C493.216 112.872 494.534 113.132 495.694 113.749C496.855 114.367 497.806 115.314 498.428 116.472C499.252 118.021 499.429 119.833 498.92 121.512C498.41 123.191 497.256 124.6 495.71 125.431V125.467Z" fill="#EBEBEB"/>
<path d="M114.239 274.355L111.398 269.433L109.886 270.304C109.669 270.429 109.421 270.49 109.171 270.481C108.92 270.472 108.677 270.393 108.469 270.253C108.235 270.1 107.992 269.96 107.743 269.832C107.522 269.718 107.338 269.544 107.21 269.332C107.082 269.119 107.014 268.875 107.016 268.627V266.892H101.297V268.62C101.298 268.868 101.231 269.112 101.103 269.325C100.975 269.537 100.791 269.71 100.57 269.825C100.316 269.956 100.069 270.094 99.8437 270.246C99.6319 270.393 99.3822 270.476 99.1245 270.485C98.8668 270.494 98.612 270.429 98.3904 270.297L96.8862 269.426L94.0449 274.348L95.5564 275.219C95.7718 275.346 95.9478 275.529 96.0646 275.75C96.1814 275.97 96.2344 276.219 96.2177 276.468C96.2177 276.606 96.2177 276.751 96.2177 276.889C96.2177 277.027 96.2177 277.165 96.2177 277.31C96.2346 277.557 96.1824 277.804 96.0669 278.024C95.9514 278.243 95.7772 278.426 95.5637 278.552L94.0449 279.43L96.8862 284.352L98.3977 283.481C98.6193 283.35 98.8741 283.284 99.1318 283.293C99.3895 283.302 99.6391 283.385 99.851 283.532C100.086 283.685 100.328 283.826 100.578 283.953C100.797 284.067 100.98 284.239 101.109 284.451C101.237 284.662 101.304 284.904 101.304 285.151V286.893H106.994V285.151C106.993 284.904 107.061 284.661 107.189 284.45C107.317 284.239 107.501 284.067 107.721 283.953C107.968 283.822 108.215 283.684 108.447 283.532C108.655 283.392 108.898 283.314 109.149 283.305C109.399 283.296 109.647 283.357 109.864 283.481L111.376 284.352L114.217 279.43L112.706 278.559C112.49 278.433 112.314 278.249 112.197 278.028C112.081 277.808 112.028 277.559 112.044 277.31C112.044 277.172 112.044 277.027 112.044 276.889C112.044 276.751 112.044 276.606 112.044 276.468C112.028 276.219 112.081 275.97 112.197 275.75C112.314 275.529 112.49 275.346 112.706 275.219L114.239 274.355ZM108.804 276.896C108.804 277.817 108.53 278.717 108.019 279.482C107.507 280.247 106.779 280.844 105.928 281.196C105.077 281.548 104.14 281.64 103.237 281.461C102.333 281.281 101.503 280.838 100.852 280.187C100.201 279.536 99.7569 278.707 99.5772 277.804C99.3974 276.902 99.4897 275.966 99.8422 275.115C100.195 274.265 100.792 273.538 101.558 273.027C102.324 272.516 103.224 272.243 104.146 272.243C105.381 272.243 106.566 272.733 107.439 273.606C108.313 274.478 108.804 275.662 108.804 276.896Z" fill="#EBEBEB"/>
<path d="M65.3275 218.693C60.9465 218.691 56.6636 219.988 53.0203 222.419C49.377 224.849 46.537 228.305 44.8595 232.348C43.182 236.391 42.7423 240.841 43.5961 245.134C44.4499 249.427 46.5588 253.371 49.6561 256.466C52.7533 259.561 56.6999 261.67 60.9965 262.524C65.2931 263.379 69.7469 262.941 73.7945 261.266C77.8421 259.591 81.3017 256.755 83.7357 253.116C86.1698 249.477 87.469 245.198 87.469 240.821C87.47 237.916 86.8979 235.038 85.7857 232.354C84.6734 229.669 83.0426 227.229 80.9865 225.175C78.9303 223.12 76.4891 221.49 73.8023 220.377C71.1155 219.265 68.2357 218.693 65.3275 218.693ZM65.3275 251.145C63.282 251.145 61.2825 250.539 59.5819 249.403C57.8812 248.268 56.5559 246.654 55.7734 244.766C54.991 242.878 54.7866 240.8 55.1862 238.796C55.5858 236.792 56.5714 234.951 58.0182 233.506C59.4651 232.062 61.3083 231.079 63.3146 230.681C65.3209 230.283 67.4003 230.489 69.2896 231.272C71.179 232.055 72.7934 233.38 73.9288 235.08C75.0641 236.78 75.6694 238.778 75.6679 240.821C75.666 243.56 74.5757 246.186 72.6367 248.122C70.6977 250.058 68.0687 251.145 65.3275 251.145Z" fill="#EBEBEB"/>
<path d="M69.5854 219.615H61.0688L61.5412 213.589H69.113L69.5854 219.615Z" fill="#EBEBEB"/>
<path d="M53.3738 222.475L47.357 228.494L43.4258 223.905L48.7813 218.555L53.3738 222.475Z" fill="#EBEBEB"/>
<path d="M43.9415 235.957V244.466L37.9175 243.994V236.429L43.9415 235.957Z" fill="#EBEBEB"/>
<path d="M46.8117 252.147L52.8358 258.166L48.2432 262.086L42.8877 256.735L46.8117 252.147Z" fill="#EBEBEB"/>
<path d="M60.2988 261.57H68.8154L68.3503 267.596H60.7712L60.2988 261.57Z" fill="#EBEBEB"/>
<path d="M76.5107 258.703L82.5348 252.691L86.4588 257.28L81.1033 262.63L76.5107 258.703Z" fill="#EBEBEB"/>
<path d="M85.9429 245.228V236.719L91.9669 237.191V244.756L85.9429 245.228Z" fill="#EBEBEB"/>
<path d="M83.0724 229.039L77.0483 223.02L81.6481 219.092L87.0037 224.443L83.0724 229.039Z" fill="#EBEBEB"/>
<path d="M68.2122 85.6676C68.2122 84.7601 68.3358 82.3425 68.3358 81.3116C68.3358 76.8975 66.7589 74.901 62.646 74.7776C60.7058 74.6615 59.5576 73.5144 59.5576 71.8736C59.5576 70.2329 60.7058 69.093 62.646 68.9696C66.7589 68.8099 68.3067 66.8787 68.3067 62.4356C68.3067 61.412 68.1832 58.9944 68.1832 58.0796C68.1832 52.2135 70.6611 48.4674 80.0424 46.4128C81.9172 45.9845 83.3705 47.1388 83.3705 48.8885C83.3887 49.4274 83.2343 49.9581 82.9298 50.4034C82.6253 50.8486 82.1865 51.1852 81.6774 51.3641C75.8059 53.1791 74.9557 55.0522 74.9557 59.1686C74.9557 60.3738 75.0792 62.3703 75.0792 63.6408C75.0792 68.3525 72.783 70.6539 68.7863 71.9244C72.8411 73.253 75.0792 75.4891 75.0792 80.2081C75.0792 81.4713 74.9557 83.4678 74.9557 84.6803C74.9557 88.7894 75.8059 90.6625 81.6774 92.4775C82.1865 92.6564 82.6253 92.993 82.9298 93.4383C83.2343 93.8835 83.3887 94.4142 83.3705 94.9532C83.3705 96.7101 81.9172 97.8572 80.0424 97.4361C70.6902 95.3525 68.2122 91.599 68.2122 85.6676Z" fill="#EBEBEB"/>
<path d="M103.673 58.0798C103.673 58.9873 103.55 61.4049 103.55 62.4358C103.55 66.9152 105.185 68.8464 109.298 69.0279C111.172 69.1513 112.321 70.2984 112.321 71.9319C112.321 73.5654 111.172 74.7125 109.298 74.8359C105.185 74.9593 103.55 76.9558 103.55 81.3699C103.55 82.3936 103.673 84.8111 103.673 85.7259C103.673 91.6501 101.188 95.4035 91.8068 97.4581C89.932 97.8791 88.4859 96.7321 88.4859 94.9751C88.4669 94.428 88.6278 93.8896 88.9441 93.4425C89.2604 92.9954 89.7145 92.6642 90.2372 92.4995C96.0505 90.6845 96.8934 88.8114 96.8934 84.7022C96.8934 83.4898 96.7699 81.4933 96.7699 80.2301C96.7699 75.5111 99.0734 73.2169 103.063 71.9464C99.008 70.6178 96.7699 68.3745 96.7699 63.6628C96.7699 62.3923 96.8934 60.3958 96.8934 59.1906C96.8934 55.0742 96.0432 53.2011 90.2372 51.3861C89.7145 51.2214 89.2604 50.8901 88.9441 50.443C88.6278 49.9959 88.4669 49.4576 88.4859 48.9104C88.4859 47.1608 89.9392 46.0064 91.8068 46.4348C101.188 48.4385 103.673 52.1847 103.673 58.0798Z" fill="#EBEBEB"/>
<path d="M36.8564 324.703L95.7673 324.529L154.678 324.464L272.5 324.34L390.322 324.464L449.233 324.529L508.143 324.703L449.233 324.885L390.322 324.95L272.5 325.066L154.678 324.943L95.7673 324.885L36.8564 324.703Z" fill="#263238"/>
<path d="M472.253 310.169H72.7466V324.703H472.253V310.169Z" fill="#C7C7C7"/>
<path d="M430.971 98.3511H114.028V310.169H430.971V98.3511Z" fill="#DBDBDB"/>
<path d="M428.675 100.936H116.332V307.584H428.675V100.936Z" fill="#263238"/>
<path d="M414.84 114.214H130.161V294.299H414.84V114.214Z" fill="#455A64"/>
<path d="M191.201 121.147H130.161V294.306H191.201V121.147Z" fill="#37474F"/>
<path d="M136.693 121.147H130.161V294.306H136.693V121.147Z" fill="#455A64"/>
<path d="M191.208 180.367H136.693V182.944H191.208V180.367Z" fill="#014E7B"/>
<path d="M163.965 129.743H142.768V130.897H163.965V129.743Z" fill="white"/>
<path d="M140.058 129.954H141.424L140.741 130.68L140.058 129.954Z" fill="white"/>
<path d="M147.281 134.02H144.469V135.174H147.281V134.02Z" fill="white"/>
<path d="M142.768 135.276V133.911L143.495 134.593L142.768 135.276Z" fill="white"/>
<path d="M147.281 138.295H144.469V139.45H147.281V138.295Z" fill="white"/>
<path d="M142.448 138.506H143.814L143.131 139.232L142.448 138.506Z" fill="white"/>
<path d="M147.281 142.572H144.469V143.726H147.281V142.572Z" fill="white"/>
<path d="M142.448 142.782H143.814L143.131 143.515L142.448 142.782Z" fill="white"/>
<path d="M148.988 146.848H146.176V148.002H148.988V146.848Z" fill="white"/>
<path d="M144.469 148.104V146.739L145.203 147.421L144.469 148.104Z" fill="white"/>
<path d="M150.696 151.131H147.884V152.286H150.696V151.131Z" fill="white"/>
<path d="M146.176 152.387V151.022L146.91 151.705L146.176 152.387Z" fill="white"/>
<path d="M150.696 193.893H147.884V195.047H150.696V193.893Z" fill="white"/>
<path d="M146.176 195.149V193.784L146.91 194.466L146.176 195.149Z" fill="white"/>
<path d="M152.404 155.4H149.592V156.555H152.404V155.4Z" fill="white"/>
<path d="M147.884 156.656V155.291L148.618 155.973L147.884 156.656Z" fill="white"/>
<path d="M152.404 189.617H149.592V190.771H152.404V189.617Z" fill="white"/>
<path d="M147.884 190.873V189.508L148.618 190.19L147.884 190.873Z" fill="white"/>
<path d="M154.112 159.676H151.299V160.831H154.112V159.676Z" fill="white"/>
<path d="M149.592 160.932V159.567L150.326 160.25L149.592 160.932Z" fill="white"/>
<path d="M154.112 185.333H151.299V186.487H154.112V185.333Z" fill="white"/>
<path d="M149.592 186.596V185.231L150.326 185.914L149.592 186.596Z" fill="white"/>
<path d="M155.819 163.959H153.007V165.114H155.819V163.959Z" fill="white"/>
<path d="M151.299 165.215V163.851L152.033 164.533L151.299 165.215Z" fill="white"/>
<path d="M156.139 168.229H153.327V169.383H156.139V168.229Z" fill="white"/>
<path d="M151.299 168.439H152.665L151.982 169.172L151.299 168.439Z" fill="white"/>
<path d="M156.139 172.505H153.327V173.659H156.139V172.505Z" fill="white"/>
<path d="M151.299 172.715H152.665L151.982 173.449L151.299 172.715Z" fill="white"/>
<path d="M156.139 176.781H153.327V177.935H156.139V176.781Z" fill="white"/>
<path d="M151.299 176.991H152.665L151.982 177.724L151.299 176.991Z" fill="white"/>
<path d="M156.139 181.057H153.327V182.211H156.139V181.057Z" fill="white"/>
<path d="M151.299 181.268H152.665L151.982 182.001L151.299 181.268Z" fill="white"/>
<path d="M147.281 198.169H144.469V199.323H147.281V198.169Z" fill="white"/>
<path d="M142.768 199.425V198.06L143.495 198.742L142.768 199.425Z" fill="white"/>
<path d="M147.281 202.445H144.469V203.599H147.281V202.445Z" fill="white"/>
<path d="M142.448 202.655H143.814L143.131 203.389L142.448 202.655Z" fill="white"/>
<path d="M147.281 206.721H144.469V207.876H147.281V206.721Z" fill="white"/>
<path d="M142.448 206.932H143.814L143.131 207.665L142.448 206.932Z" fill="white"/>
<path d="M148.988 210.997H146.176V212.151H148.988V210.997Z" fill="white"/>
<path d="M144.469 212.26V210.896L145.203 211.578L144.469 212.26Z" fill="white"/>
<path d="M150.696 215.281H147.884V216.435H150.696V215.281Z" fill="white"/>
<path d="M146.176 216.537V215.172L146.91 215.854L146.176 216.537Z" fill="white"/>
<path d="M150.696 219.557H147.884V220.711H150.696V219.557Z" fill="white"/>
<path d="M146.176 220.82V219.455L146.91 220.138L146.176 220.82Z" fill="white"/>
<path d="M151.016 223.833H148.204V224.987H151.016V223.833Z" fill="white"/>
<path d="M146.176 224.043H147.542L146.859 224.777L146.176 224.043Z" fill="white"/>
<path d="M151.016 228.109H148.204V229.263H151.016V228.109Z" fill="white"/>
<path d="M146.176 228.319H147.542L146.859 229.053L146.176 228.319Z" fill="white"/>
<path d="M151.016 232.385H148.204V233.54H151.016V232.385Z" fill="white"/>
<path d="M146.176 232.596H147.542L146.859 233.329L146.176 232.596Z" fill="white"/>
<path d="M151.016 236.661H148.204V237.815H151.016V236.661Z" fill="white"/>
<path d="M146.176 236.872H147.542L146.859 237.605L146.176 236.872Z" fill="white"/>
<path d="M414.84 114.214H130.161V121.14H414.84V114.214Z" fill="#014E7B"/>
<path d="M136.693 117.685C136.693 117.945 136.616 118.199 136.471 118.415C136.327 118.631 136.121 118.799 135.881 118.899C135.641 118.998 135.376 119.024 135.121 118.973C134.866 118.923 134.632 118.798 134.448 118.614C134.264 118.43 134.139 118.196 134.088 117.941C134.037 117.686 134.063 117.422 134.163 117.182C134.262 116.942 134.431 116.736 134.647 116.592C134.863 116.448 135.118 116.371 135.378 116.371C135.727 116.371 136.061 116.509 136.308 116.755C136.554 117.002 136.693 117.336 136.693 117.685Z" fill="#C7C7C7"/>
<path d="M142.049 117.685C142.049 117.945 141.972 118.199 141.827 118.415C141.683 118.631 141.477 118.799 141.237 118.899C140.997 118.998 140.732 119.024 140.477 118.973C140.222 118.923 139.988 118.798 139.804 118.614C139.62 118.43 139.494 118.196 139.444 117.941C139.393 117.686 139.419 117.422 139.519 117.182C139.618 116.942 139.787 116.736 140.003 116.592C140.219 116.448 140.474 116.371 140.734 116.371C141.083 116.371 141.417 116.509 141.664 116.755C141.91 117.002 142.049 117.336 142.049 117.685Z" fill="white"/>
<path d="M147.412 117.685C147.412 117.945 147.335 118.199 147.19 118.415C147.046 118.631 146.84 118.799 146.6 118.899C146.36 118.998 146.095 119.024 145.84 118.973C145.585 118.923 145.35 118.798 145.166 118.614C144.983 118.43 144.857 118.196 144.807 117.941C144.756 117.686 144.782 117.422 144.881 117.182C144.981 116.942 145.15 116.736 145.366 116.592C145.582 116.448 145.836 116.371 146.097 116.371C146.445 116.371 146.78 116.509 147.027 116.755C147.273 117.002 147.412 117.336 147.412 117.685Z" fill="#455A64"/>
<path d="M210.682 151.937H205.545V153.193H210.682V151.937Z" fill="#EBEBEB"/>
<path d="M330.582 151.937H216.735V153.193H330.582V151.937Z" fill="#EBEBEB"/>
<path d="M343.495 151.937H333.744V153.193H343.495V151.937Z" fill="#014E7B"/>
<path d="M382.278 181.688H349.353V182.944H382.278V181.688Z" fill="#EBEBEB"/>
<path d="M393.955 151.937H345.617V153.193H393.955V151.937Z" fill="#A6A6A6"/>
<path d="M210.682 157.883H205.545V159.139H210.682V157.883Z" fill="#EBEBEB"/>
<path d="M260.408 157.883H221.742V159.139H260.408V157.883Z" fill="#A6A6A6"/>
<path d="M347.041 181.688H332.414V182.944H347.041V181.688Z" fill="#A6A6A6"/>
<path d="M253.665 175.735H216.735V176.991H253.665V175.735Z" fill="#A6A6A6"/>
<path d="M247.648 163.836H221.742V165.092H247.648V163.836Z" fill="#014E7B"/>
<path d="M389.348 169.782H340.269V171.038H389.348V169.782Z" fill="#A6A6A6"/>
<path d="M330.59 198.989H281.511V200.245H330.59V198.989Z" fill="#A6A6A6"/>
<path d="M346.831 163.836H250.525V165.092H346.831V163.836Z" fill="#A6A6A6"/>
<path d="M329.063 181.688H216.735V182.944H329.063V181.688Z" fill="#014E7B"/>
<path d="M342.413 157.883H262.835V159.139H342.413V157.883Z" fill="#EBEBEB"/>
<path d="M367.606 163.836H350.951V165.092H367.606V163.836Z" fill="#EBEBEB"/>
<path d="M210.682 163.836H205.545V165.092H210.682V163.836Z" fill="#EBEBEB"/>
<path d="M210.682 169.782H205.545V171.038H210.682V169.782Z" fill="#A6A6A6"/>
<path d="M247.088 169.782H216.735V171.038H247.088V169.782Z" fill="#EBEBEB"/>
<path d="M252.095 187.635H221.742V188.891H252.095V187.635Z" fill="#EBEBEB"/>
<path d="M375.658 193.588H333.278V194.844H375.658V193.588Z" fill="#014E7B"/>
<path d="M330.626 193.588H249.196V194.844H330.626V193.588Z" fill="#EBEBEB"/>
<path d="M244.56 193.588H221.742V194.844H244.56V193.588Z" fill="#A6A6A6"/>
<path d="M343.496 175.735H255.758V176.991H343.496V175.735Z" fill="#EBEBEB"/>
<path d="M397.966 175.735H345.617V176.991H397.966V175.735Z" fill="#014E7B"/>
<path d="M337.878 169.782H250.177V171.038H337.878V169.782Z" fill="#014E7B"/>
<path d="M210.682 175.735H205.545V176.991H210.682V175.735Z" fill="#EBEBEB"/>
<path d="M210.682 181.688H205.545V182.944H210.682V181.688Z" fill="#EBEBEB"/>
<path d="M210.682 187.635H205.545V188.891H210.682V187.635Z" fill="#A6A6A6"/>
<path d="M210.682 193.588H205.545V194.844H210.682V193.588Z" fill="#EBEBEB"/>
<path d="M210.682 198.989H205.545V200.245H210.682V198.989Z" fill="#EBEBEB"/>
<path d="M276.954 198.989H216.735V200.245H276.954V198.989Z" fill="#EBEBEB"/>
<path d="M210.682 204.942H205.545V206.198H210.682V204.942Z" fill="#EBEBEB"/>
<path d="M260.408 204.942H221.742V206.198H260.408V204.942Z" fill="#A6A6A6"/>
<path d="M253.665 222.788H216.735V224.044H253.665V222.788Z" fill="#A6A6A6"/>
<path d="M247.648 210.888H221.742V212.144H247.648V210.888Z" fill="#014E7B"/>
<path d="M306.98 234.694H281.075V235.95H306.98V234.694Z" fill="#014E7B"/>
<path d="M247.648 246.593H221.742V247.849H247.648V246.593Z" fill="#014E7B"/>
<path d="M346.831 210.888H250.525V212.144H346.831V210.888Z" fill="#A6A6A6"/>
<path d="M329.063 228.741H216.735V229.997H329.063V228.741Z" fill="#014E7B"/>
<path d="M342.413 204.942H262.835V206.198H342.413V204.942Z" fill="#EBEBEB"/>
<path d="M359.257 216.841H342.631V218.097H359.257V216.841Z" fill="#EBEBEB"/>
<path d="M210.682 210.888H205.545V212.144H210.682V210.888Z" fill="#EBEBEB"/>
<path d="M210.682 216.841H205.545V218.097H210.682V216.841Z" fill="#A6A6A6"/>
<path d="M247.088 216.841H216.735V218.097H247.088V216.841Z" fill="#EBEBEB"/>
<path d="M343.496 222.788H255.758V224.044H343.496V222.788Z" fill="#EBEBEB"/>
<path d="M337.878 216.841H250.177V218.097H337.878V216.841Z" fill="#014E7B"/>
<path d="M210.682 222.788H205.545V224.044H210.682V222.788Z" fill="#EBEBEB"/>
<path d="M210.682 234.694H205.545V235.95H210.682V234.694Z" fill="#EBEBEB"/>
<path d="M276.954 234.694H216.735V235.95H276.954V234.694Z" fill="#EBEBEB"/>
<path d="M210.682 240.64H205.545V241.896H210.682V240.64Z" fill="#EBEBEB"/>
<path d="M260.408 240.64H221.742V241.896H260.408V240.64Z" fill="#A6A6A6"/>
<path d="M253.665 258.492H216.735V259.748H253.665V258.492Z" fill="#A6A6A6"/>
<path d="M346.831 246.593H250.525V247.849H346.831V246.593Z" fill="#A6A6A6"/>
<path d="M359.257 252.539H342.631V253.795H359.257V252.539Z" fill="#EBEBEB"/>
<path d="M210.682 246.593H205.545V247.849H210.682V246.593Z" fill="#EBEBEB"/>
<path d="M210.682 252.539H205.545V253.795H210.682V252.539Z" fill="#A6A6A6"/>
<path d="M247.088 252.539H216.735V253.795H247.088V252.539Z" fill="#EBEBEB"/>
<path d="M343.496 258.492H255.758V259.748H343.496V258.492Z" fill="#EBEBEB"/>
<path d="M337.878 252.539H250.177V253.795H337.878V252.539Z" fill="#014E7B"/>
<path d="M210.682 258.492H205.545V259.748H210.682V258.492Z" fill="#EBEBEB"/>
<path d="M208.713 140.437C208.756 140.478 208.79 140.527 208.813 140.581C208.837 140.636 208.849 140.694 208.849 140.753C208.849 140.812 208.837 140.871 208.813 140.925C208.79 140.979 208.756 141.028 208.713 141.069C208.673 141.11 208.626 141.143 208.574 141.165C208.521 141.187 208.465 141.199 208.408 141.2C208.286 141.201 208.168 141.154 208.081 141.069L206.097 139.065C206.097 139.065 206.097 139.065 206.097 139.022C206.094 139.002 206.094 138.983 206.097 138.964C206.097 138.964 206.097 138.927 206.097 138.92C206.097 138.913 206.097 138.92 206.097 138.884V138.833C206.097 138.833 206.097 138.833 206.097 138.789C206.097 138.746 206.097 138.789 206.097 138.753V138.666C206.097 138.666 206.097 138.63 206.097 138.608C206.108 138.585 206.12 138.563 206.133 138.542C206.133 138.542 206.133 138.542 206.17 138.499L208.153 136.488C208.239 136.407 208.352 136.361 208.47 136.361C208.587 136.361 208.7 136.407 208.786 136.488C208.829 136.529 208.863 136.578 208.886 136.632C208.909 136.686 208.921 136.745 208.921 136.804C208.921 136.863 208.909 136.921 208.886 136.976C208.863 137.03 208.829 137.079 208.786 137.119L207.114 138.804L208.713 140.437Z" fill="#014E7B"/>
<path d="M210.508 140.663L212.237 136.561C212.257 136.513 212.286 136.469 212.323 136.433C212.36 136.396 212.403 136.368 212.451 136.348C212.499 136.328 212.551 136.318 212.603 136.319C212.654 136.319 212.706 136.33 212.753 136.35C212.799 136.37 212.841 136.398 212.876 136.434C212.911 136.47 212.938 136.513 212.956 136.56C212.975 136.606 212.983 136.656 212.982 136.706C212.981 136.756 212.97 136.805 212.949 136.851L211.22 140.967C211.19 141.037 211.14 141.096 211.077 141.137C211.014 141.178 210.94 141.2 210.864 141.2C210.816 141.21 210.766 141.21 210.719 141.2C210.667 141.181 210.621 141.152 210.581 141.114C210.542 141.075 210.512 141.029 210.492 140.979C210.472 140.928 210.463 140.873 210.466 140.819C210.469 140.764 210.483 140.711 210.508 140.663Z" fill="#014E7B"/>
<path d="M216.358 139.007C216.358 139.007 216.358 139.043 216.314 139.058L214.33 141.062C214.288 141.103 214.238 141.136 214.184 141.159C214.129 141.181 214.07 141.193 214.011 141.192C213.923 141.19 213.839 141.162 213.767 141.113C213.695 141.063 213.639 140.994 213.606 140.913C213.573 140.832 213.564 140.743 213.58 140.658C213.597 140.572 213.638 140.493 213.698 140.43L215.37 138.746L213.698 137.061C213.655 137.021 213.621 136.972 213.598 136.917C213.575 136.863 213.563 136.805 213.562 136.746C213.563 136.686 213.575 136.628 213.598 136.574C213.621 136.519 213.655 136.47 213.698 136.43C213.783 136.349 213.897 136.303 214.014 136.303C214.132 136.303 214.245 136.349 214.33 136.43L216.314 138.441C216.314 138.441 216.314 138.441 216.358 138.484C216.401 138.528 216.358 138.484 216.358 138.484C216.371 138.505 216.383 138.527 216.394 138.55C216.392 138.571 216.392 138.593 216.394 138.615V138.659C216.394 138.659 216.394 138.659 216.394 138.695V138.789C216.393 138.811 216.393 138.833 216.394 138.855L216.358 139.007Z" fill="#014E7B"/>
<path d="M122.988 152.976H85.9355V104.624H113.869L122.988 113.735V152.976Z" fill="#014E7B"/>
<path opacity="0.6" d="M122.988 152.976H85.9355V104.624H113.869L122.988 113.735V152.976Z" fill="white"/>
<path d="M122.988 113.735H113.869V104.624L122.988 113.735Z" fill="#014E7B"/>
<path d="M94.503 121.663C94.5044 122.209 94.6678 122.742 94.9724 123.195C95.277 123.647 95.7092 124 96.2143 124.207C96.7194 124.415 97.2748 124.468 97.8101 124.36C98.3455 124.252 98.8368 123.988 99.222 123.601C99.6071 123.215 99.8688 122.722 99.974 122.187C100.079 121.651 100.023 121.097 99.8126 120.593C99.6023 120.09 99.2473 119.66 98.7924 119.358C98.3375 119.056 97.8032 118.896 97.257 118.897C96.8941 118.897 96.5348 118.969 96.1997 119.108C95.8646 119.247 95.5604 119.451 95.3045 119.708C95.0485 119.965 94.846 120.27 94.7084 120.606C94.5709 120.941 94.5011 121.3 94.503 121.663Z" fill="#014E7B"/>
<path d="M98.7612 133.925H117.502L108.135 122.498L98.7612 133.925Z" fill="#014E7B"/>
<path d="M91.4146 133.925H106.885L99.1535 126.484L91.4146 133.925Z" fill="#014E7B"/>
<path opacity="0.1" d="M91.4146 133.925H106.885L99.1535 126.484L91.4146 133.925Z" fill="black"/>
<path d="M117.495 115.637H91.4146V133.925H117.495V115.637Z" stroke="#014E7B" stroke-width="2" stroke-miterlimit="10"/>
<path d="M103.55 135.9H76.9321V146.906H103.55V135.9Z" fill="#455A64"/>
<path d="M84.751 138.898V144.235H83.7191V141.955H81.2921V144.235H80.2529V138.898H81.2921V141.076H83.7191V138.898H84.751Z" fill="white"/>
<path d="M89.8525 139.806H88.1449V144.235H87.1203V139.806H85.4126V138.898H89.8525V139.806Z" fill="white"/>
<path d="M94.8738 144.235V140.699L93.4931 143.334H92.9336L91.5602 140.699V144.235H90.5283V138.898H91.6401L93.217 141.933L94.8156 138.898H95.9202V144.235H94.8738Z" fill="white"/>
<path d="M97.0244 144.235V138.898H98.0999V143.327H100.825V144.235H97.0244Z" fill="white"/>
<path d="M122.988 211.709H85.8921V163.307H113.861L122.988 172.425V211.709Z" fill="#014E7B"/>
<path opacity="0.6" d="M122.988 211.709H85.8921V163.307H113.861L122.988 172.425V211.709Z" fill="white"/>
<path d="M122.988 172.425H113.861V163.307L122.988 172.425Z" fill="#014E7B"/>
<path d="M94.4668 180.36C94.4682 180.907 94.632 181.442 94.9374 181.896C95.2428 182.35 95.6762 182.703 96.1826 182.911C96.6891 183.119 97.2459 183.173 97.7827 183.064C98.3194 182.956 98.812 182.692 99.1982 182.304C99.5844 181.916 99.8468 181.422 99.9522 180.885C100.058 180.349 100.001 179.793 99.7905 179.288C99.5796 178.783 99.2236 178.352 98.7675 178.049C98.3114 177.746 97.7757 177.585 97.2281 177.587C96.4945 177.591 95.7921 177.885 95.2747 178.404C94.7572 178.924 94.4668 179.627 94.4668 180.36Z" fill="#014E7B"/>
<path d="M98.7393 192.637H117.495L108.113 181.195L98.7393 192.637Z" fill="#014E7B"/>
<path d="M91.3857 192.637H106.871L99.1247 185.188L91.3857 192.637Z" fill="#014E7B"/>
<path opacity="0.1" d="M91.3857 192.637H106.871L99.1247 185.188L91.3857 192.637Z" fill="black"/>
<path d="M117.495 174.334H91.3857V192.637H117.495V174.334Z" stroke="#014E7B" stroke-width="2" stroke-miterlimit="10"/>
<path d="M103.528 194.611H76.8887V205.625H103.528V194.611Z" fill="#455A64"/>
<path d="M83.1817 200.245C83.1824 199.916 83.2414 199.589 83.3561 199.28C83.4721 198.964 83.6472 198.673 83.872 198.423C84.1069 198.169 84.388 197.962 84.7004 197.813C85.0494 197.655 85.429 197.576 85.8122 197.581C86.2607 197.569 86.7037 197.682 87.0911 197.908C87.4325 198.106 87.7099 198.399 87.8905 198.75L87.0911 199.302C86.978 199.033 86.7751 198.813 86.5171 198.677C86.403 198.614 86.2807 198.568 86.1537 198.539C86.0315 198.516 85.9075 198.504 85.7831 198.503C85.5464 198.498 85.3119 198.55 85.1001 198.655C84.9149 198.761 84.7521 198.902 84.6205 199.069C84.4882 199.24 84.3896 199.435 84.3298 199.643C84.1944 200.07 84.1944 200.529 84.3298 200.957C84.4009 201.166 84.5092 201.36 84.6495 201.53C84.7877 201.696 84.9583 201.832 85.1509 201.93C85.3456 202.033 85.563 202.085 85.7831 202.082C85.9103 202.082 86.037 202.067 86.161 202.039C86.291 202.009 86.4159 201.96 86.5316 201.893C86.6557 201.83 86.7666 201.744 86.8586 201.639C86.9629 201.532 87.0466 201.407 87.1057 201.269L87.9559 201.756C87.87 201.956 87.7438 202.136 87.5853 202.285C87.4294 202.442 87.2505 202.575 87.0548 202.678C86.8513 202.781 86.6368 202.861 86.4153 202.917C86.1992 202.972 85.977 202.999 85.7541 202.997C85.3913 203.001 85.0327 202.918 84.7077 202.757C84.3998 202.602 84.1238 202.39 83.8938 202.133C83.6629 201.872 83.4807 201.572 83.3561 201.247C83.2341 200.928 83.1749 200.587 83.1817 200.245Z" fill="white"/>
<path d="M91.8504 199.011C91.793 198.956 91.7296 198.907 91.6615 198.866C91.4214 198.723 91.162 198.616 90.8912 198.547C90.7347 198.505 90.5734 198.486 90.4116 198.488C90.1879 198.473 89.9649 198.526 89.7721 198.641C89.7033 198.693 89.6482 198.762 89.6115 198.84C89.5748 198.919 89.5576 199.005 89.5614 199.091C89.5587 199.187 89.5867 199.281 89.6413 199.36C89.7054 199.439 89.7844 199.506 89.8739 199.556C89.995 199.616 90.1215 199.664 90.2517 199.701C90.4043 199.752 90.586 199.795 90.7822 199.846C90.9784 199.897 91.2836 199.991 91.5089 200.071C91.7064 200.142 91.8906 200.245 92.0539 200.376C92.1987 200.491 92.3155 200.638 92.3954 200.804C92.4823 201.001 92.5245 201.214 92.5189 201.429C92.5236 201.681 92.4662 201.93 92.3518 202.155C92.2462 202.351 92.097 202.519 91.9158 202.648C91.7235 202.778 91.5093 202.871 91.2836 202.924C91.0447 202.976 90.8012 203.002 90.5569 203.004C90.1534 203.004 89.752 202.945 89.3652 202.83C88.9883 202.716 88.6325 202.542 88.3115 202.315L88.7693 201.422C88.8474 201.485 88.93 201.544 89.0164 201.596C89.3139 201.774 89.6341 201.91 89.9683 202.002C90.1655 202.052 90.3682 202.076 90.5715 202.075C91.1455 202.075 91.4289 201.893 91.4289 201.523C91.4335 201.418 91.4 201.315 91.3345 201.233C91.2569 201.142 91.1601 201.07 91.0511 201.022C90.911 200.954 90.7651 200.898 90.6151 200.855L90.041 200.688C89.8152 200.63 89.5942 200.555 89.3797 200.463C89.2074 200.39 89.0479 200.289 88.9074 200.166C88.7847 200.058 88.6879 199.924 88.624 199.774C88.5597 199.604 88.5277 199.425 88.5295 199.244C88.524 198.993 88.5762 198.745 88.6821 198.518C88.7802 198.313 88.9215 198.132 89.0963 197.988C89.2836 197.844 89.4954 197.736 89.7213 197.668C89.957 197.597 90.2017 197.56 90.4479 197.559C90.8025 197.556 91.1547 197.617 91.4871 197.741C91.7702 197.862 92.0384 198.015 92.2864 198.198L91.8504 199.011Z" fill="white"/>
<path d="M96.4724 199.011C96.4106 198.958 96.345 198.909 96.2762 198.866C96.0381 198.719 95.7781 198.611 95.5059 198.546C95.352 198.505 95.193 198.485 95.0336 198.488C94.8097 198.471 94.5861 198.524 94.3941 198.641C94.3244 198.692 94.2686 198.76 94.2318 198.839C94.195 198.918 94.1784 199.004 94.1834 199.091C94.1786 199.186 94.2041 199.28 94.2561 199.359C94.3202 199.439 94.3991 199.506 94.4886 199.555C94.6098 199.615 94.7363 199.664 94.8665 199.701C95.0191 199.751 95.2007 199.795 95.3969 199.846C95.5931 199.897 95.8983 199.991 96.1236 200.071C96.3218 200.14 96.5063 200.243 96.6686 200.376C96.8135 200.491 96.9303 200.637 97.0101 200.804C97.097 201.001 97.1392 201.214 97.1337 201.428C97.1383 201.68 97.0809 201.93 96.9665 202.154C96.8663 202.354 96.7161 202.524 96.5305 202.648C96.3382 202.777 96.124 202.871 95.8983 202.924C95.6595 202.976 95.416 203.002 95.1717 203.004C94.7681 203.003 94.3667 202.945 93.9799 202.83C93.6038 202.714 93.2482 202.54 92.9263 202.314L93.3913 201.421C93.4651 201.487 93.5455 201.546 93.6311 201.595C93.7677 201.675 93.9084 201.748 94.0526 201.813C94.2236 201.891 94.4011 201.955 94.5831 202.002C94.7802 202.052 94.9829 202.076 95.1862 202.075C95.7603 202.075 96.0437 201.893 96.0437 201.523C96.0483 201.418 96.0147 201.315 95.9492 201.232C95.8728 201.144 95.7787 201.072 95.6731 201.022C95.5299 200.955 95.3817 200.899 95.2298 200.855L94.663 200.688C94.4346 200.631 94.211 200.555 93.9945 200.463C93.8221 200.39 93.6626 200.289 93.5221 200.165C93.3995 200.057 93.3026 199.923 93.2387 199.773C93.1745 199.604 93.1424 199.424 93.1443 199.243C93.1387 198.993 93.1909 198.744 93.2969 198.517C93.3952 198.311 93.5393 198.13 93.7183 197.987C93.903 197.844 94.1124 197.736 94.336 197.668C94.5719 197.597 94.8165 197.561 95.0627 197.559C95.4174 197.554 95.7698 197.616 96.1018 197.74C96.393 197.846 96.671 197.985 96.9302 198.154L96.4724 199.011Z" fill="white"/>
<path d="M82.3966 187.01H81.6699" stroke="#263238" stroke-width="0.75" stroke-miterlimit="10"/>
<path d="M80.3401 187.01H75.6895" stroke="#263238" stroke-width="0.75" stroke-miterlimit="10" stroke-dasharray="1.83 1.83"/>
<path d="M75.0284 187.01H74.3018V186.284" stroke="#263238" stroke-width="0.75" stroke-miterlimit="10"/>
<path d="M74.3018 184.847V122.302" stroke="#263238" stroke-width="0.75" stroke-miterlimit="10" stroke-dasharray="1.98 1.98"/>
<path d="M74.3018 121.583V120.857H75.0284" stroke="#263238" stroke-width="0.75" stroke-miterlimit="10"/>
<path d="M76.1982 120.857H80.3184" stroke="#263238" stroke-width="0.75" stroke-miterlimit="10" stroke-dasharray="1.62 1.62"/>
<path d="M80.8999 120.857H81.6266" stroke="#263238" stroke-width="0.75" stroke-miterlimit="10"/>
<path d="M82.3602 186.19C82.5226 186.19 82.6814 186.238 82.8164 186.328C82.9514 186.418 83.0567 186.546 83.1188 186.696C83.181 186.846 83.1972 187.011 83.1655 187.17C83.1339 187.33 83.0557 187.476 82.9408 187.59C82.826 187.705 82.6797 187.783 82.5204 187.815C82.3611 187.847 82.196 187.83 82.046 187.768C81.8959 187.706 81.7677 187.601 81.6774 187.466C81.5872 187.331 81.5391 187.173 81.5391 187.01C81.541 186.793 81.6281 186.586 81.7817 186.432C81.9352 186.279 82.143 186.192 82.3602 186.19Z" fill="#263238"/>
<path d="M81.5902 121.677C82.0437 121.677 82.4113 121.31 82.4113 120.857C82.4113 120.404 82.0437 120.037 81.5902 120.037C81.1367 120.037 80.769 120.404 80.769 120.857C80.769 121.31 81.1367 121.677 81.5902 121.677Z" fill="#263238"/>
<path d="M74.3016 153.89H65.4072V78.1465H160.47" stroke="#263238" stroke-width="0.75" stroke-miterlimit="10" stroke-dasharray="2 2"/>
<path d="M160.15 79.2284L162.032 78.1466L160.15 77.0576V79.2284Z" fill="#263238"/>
<path d="M499.765 57.187H224.554V231.282H499.765V57.187Z" fill="white"/>
<path d="M499.852 231.369H224.445V57.1289H499.852V231.369ZM224.642 231.187H499.67V57.2741H224.642V231.187Z" fill="#263238"/>
<path d="M499.765 57.187H224.554V63.888H499.765V57.187Z" fill="#014E7B"/>
<path d="M230.862 60.5338C230.863 60.7869 230.789 61.0346 230.648 61.2452C230.508 61.4558 230.307 61.6197 230.073 61.7158C229.839 61.812 229.581 61.836 229.333 61.7847C229.085 61.7335 228.857 61.6094 228.68 61.4284C228.503 61.2473 228.384 61.0176 228.339 60.7686C228.294 60.5196 228.324 60.2627 228.425 60.0308C228.527 59.799 228.695 59.6027 228.909 59.4673C229.123 59.3318 229.373 59.2633 229.626 59.2705C229.957 59.2781 230.271 59.4146 230.502 59.6506C230.733 59.8867 230.862 60.2037 230.862 60.5338Z" fill="#C7C7C7"/>
<path d="M236.043 60.5338C236.044 60.7857 235.971 61.0323 235.832 61.2423C235.692 61.4524 235.494 61.6163 235.261 61.7134C235.029 61.8105 234.772 61.8362 234.525 61.7874C234.278 61.7387 234.05 61.6175 233.872 61.4394C233.694 61.2613 233.572 61.0342 233.524 60.7871C233.475 60.54 233.501 60.2839 233.598 60.0515C233.695 59.819 233.859 59.6207 234.069 59.4816C234.279 59.3426 234.526 59.2691 234.778 59.2705C235.114 59.2705 235.435 59.4036 235.673 59.6405C235.91 59.8774 236.043 60.1987 236.043 60.5338Z" fill="white"/>
<path d="M241.253 60.5338C241.255 60.7857 241.181 61.0323 241.042 61.2423C240.903 61.4524 240.704 61.6163 240.472 61.7134C240.239 61.8105 239.983 61.8362 239.735 61.7874C239.488 61.7387 239.261 61.6175 239.082 61.4394C238.904 61.2613 238.783 61.0342 238.734 60.7871C238.685 60.54 238.711 60.2839 238.808 60.0515C238.905 59.819 239.069 59.6207 239.28 59.4816C239.49 59.3426 239.737 59.2691 239.989 59.2705C240.324 59.2705 240.646 59.4036 240.883 59.6405C241.12 59.8774 241.253 60.1987 241.253 60.5338Z" fill="#455A64"/>
<path d="M252.727 63.8809H232.38V154.188H252.727V63.8809Z" fill="#EBEBEB"/>
<path d="M482.695 75.0176H241.624V96.892H482.695V75.0176Z" fill="#014E7B"/>
<path d="M258.279 83.4829H252.727V84.3832H258.279V83.4829Z" fill="white"/>
<path d="M258.279 87.5264H252.727V88.4266H258.279V87.5264Z" fill="white"/>
<path d="M258.279 85.5298H252.727V86.43H258.279V85.5298Z" fill="white"/>
<path d="M324.137 82.6694H270.698V89.247H324.137V82.6694Z" fill="white"/>
<path d="M324.202 89.298H270.632V82.5825H324.202V89.298Z" fill="white"/>
<path d="M324.202 82.5972H317.48V89.3127H324.202V82.5972Z" fill="#455A64"/>
<path d="M322.93 87.8024L322.32 88.2598L321.194 86.8078L320.787 86.2633C320.87 86.2272 320.948 86.1808 321.019 86.1254C321.157 86.0222 321.265 85.8844 321.332 85.7261L321.768 86.2996L322.93 87.8024Z" fill="white"/>
<path d="M321.731 84.3031C321.538 84.0536 321.278 83.8643 320.981 83.7575C320.684 83.6507 320.363 83.6309 320.055 83.7003C319.747 83.7697 319.466 83.9255 319.244 84.1493C319.021 84.3732 318.868 84.6558 318.801 84.9639C318.734 85.272 318.756 85.5928 318.866 85.8885C318.975 86.1843 319.167 86.4427 319.418 86.6333C319.669 86.8239 319.97 86.9389 320.285 86.9647C320.599 86.9904 320.914 86.9259 321.193 86.7788C321.275 86.7348 321.353 86.6838 321.426 86.6263C321.558 86.5263 321.673 86.4062 321.768 86.2706C321.974 85.9823 322.082 85.6352 322.076 85.2808C322.069 84.9264 321.948 84.5835 321.731 84.3031ZM321.005 86.0963C320.933 86.1518 320.855 86.1981 320.772 86.2343C320.549 86.3229 320.301 86.3279 320.074 86.2483C319.847 86.1686 319.657 86.0098 319.539 85.801C319.42 85.5923 319.381 85.3477 319.429 85.1124C319.476 84.8772 319.608 84.6671 319.798 84.5209C319.971 84.3896 320.181 84.3181 320.398 84.3171C320.614 84.3161 320.825 84.3858 320.999 84.5156C321.172 84.6453 321.299 84.828 321.359 85.036C321.419 85.244 321.409 85.4659 321.332 85.668C321.269 85.8369 321.161 85.9852 321.019 86.0963H321.005Z" fill="white"/>
<path d="M272.434 83.9619H272.078V87.9549H272.434V83.9619Z" fill="#C7C7C7"/>
<path d="M471.555 84.9565H448.462V86.9603H471.555V84.9565Z" fill="white"/>
<path d="M436.116 84.9565H413.022V86.9603H436.116V84.9565Z" fill="white"/>
<path opacity="0.1" d="M400.676 84.9565H377.583V86.9603H400.676V84.9565Z" fill="black"/>
<path d="M365.237 84.9565H342.144V86.9603H365.237V84.9565Z" fill="white"/>
<path d="M499.765 165.049H224.554V186.923H499.765V165.049Z" fill="#014E7B"/>
<path d="M294.888 197.254H241.624V199.716H294.888V197.254Z" fill="#455A64"/>
<path d="M241.624 205.69L250.169 205.56L258.715 205.48L275.806 205.415L292.897 205.48L301.443 205.552L309.988 205.69L301.443 205.821L292.897 205.901L275.806 205.959L258.715 205.901L250.169 205.821L241.624 205.69Z" fill="#A6A6A6"/>
<path d="M241.624 209.045L250.169 208.914L258.715 208.841L275.806 208.776L292.897 208.834L301.443 208.914L309.988 209.045L301.443 209.182L292.897 209.255L275.806 209.32L258.715 209.255L250.169 209.182L241.624 209.045Z" fill="#A6A6A6"/>
<path d="M241.624 212.406L250.169 212.275L258.715 212.195L275.806 212.13L292.897 212.195L301.443 212.275L309.988 212.406L301.443 212.536L292.897 212.616L275.806 212.674L258.715 212.616L250.169 212.536L241.624 212.406Z" fill="#A6A6A6"/>
<path d="M241.624 215.76L250.169 215.629L258.715 215.557L275.806 215.491L292.897 215.557L301.443 215.629L309.988 215.76L301.443 215.898L292.897 215.97L275.806 216.036L258.715 215.97L250.169 215.898L241.624 215.76Z" fill="#A6A6A6"/>
<path d="M241.624 219.121C244.472 219.012 247.321 218.954 250.169 218.911L258.715 218.853L267.26 218.911C270.109 218.954 272.957 219.005 275.806 219.121C272.957 219.237 270.109 219.288 267.26 219.332L258.693 219.397L250.147 219.332C247.321 219.288 244.472 219.252 241.624 219.121Z" fill="#A6A6A6"/>
<path d="M381.238 197.254H327.974V199.716H381.238V197.254Z" fill="#455A64"/>
<path d="M327.974 205.69L336.519 205.56L345.065 205.48L362.156 205.415L379.247 205.48L387.793 205.552L396.338 205.69L387.793 205.821L379.247 205.901L362.156 205.959L345.065 205.901L336.519 205.821L327.974 205.69Z" fill="#A6A6A6"/>
<path d="M327.974 209.045L336.519 208.914L345.065 208.841L362.156 208.776L379.247 208.834L387.793 208.914L396.338 209.045L387.793 209.182L379.247 209.255L362.156 209.32L345.065 209.255L336.519 209.182L327.974 209.045Z" fill="#A6A6A6"/>
<path d="M327.974 212.406L336.519 212.275L345.065 212.195L362.156 212.13L379.247 212.195L387.793 212.275L396.338 212.406L387.793 212.536L379.247 212.616L362.156 212.674L345.065 212.616L336.519 212.536L327.974 212.406Z" fill="#A6A6A6"/>
<path d="M327.974 215.76L336.519 215.629L345.065 215.557L362.156 215.491L379.247 215.557L387.793 215.629L396.338 215.76L387.793 215.898L379.247 215.97L362.156 216.036L345.065 215.97L336.519 215.898L327.974 215.76Z" fill="#A6A6A6"/>
<path d="M327.974 219.121C330.822 219.012 333.671 218.954 336.519 218.911L345.065 218.853L353.61 218.911C356.459 218.954 359.308 219.005 362.156 219.121C359.308 219.237 356.459 219.288 353.61 219.332L345.065 219.397L336.519 219.332C333.671 219.288 330.822 219.252 327.974 219.121Z" fill="#A6A6A6"/>
<path d="M467.588 197.254H414.323V199.716H467.588V197.254Z" fill="#455A64"/>
<path d="M414.323 205.69L422.869 205.56L431.414 205.48L448.506 205.415L465.604 205.48L474.15 205.552L482.695 205.69L474.15 205.821L465.604 205.901L448.506 205.959L431.414 205.901L422.869 205.821L414.323 205.69Z" fill="#A6A6A6"/>
<path d="M414.323 209.045L422.869 208.914L431.414 208.841L448.506 208.776L465.604 208.834L474.15 208.914L482.695 209.045L474.15 209.182L465.604 209.255L448.506 209.32L431.414 209.255L422.869 209.182L414.323 209.045Z" fill="#A6A6A6"/>
<path d="M414.323 212.406L422.869 212.275L431.414 212.195L448.506 212.13L465.604 212.195L474.15 212.275L482.695 212.406L474.15 212.536L465.604 212.616L448.506 212.674L431.414 212.616L422.869 212.536L414.323 212.406Z" fill="#A6A6A6"/>
<path d="M414.323 215.76L422.869 215.629L431.414 215.557L448.506 215.491L465.604 215.557L474.15 215.629L482.695 215.76L474.15 215.898L465.604 215.97L448.506 216.036L431.414 215.97L422.869 215.898L414.323 215.76Z" fill="#A6A6A6"/>
<path d="M414.323 219.121C417.172 219.012 420.02 218.954 422.869 218.911L431.414 218.853L439.96 218.911C442.809 218.954 445.657 219.005 448.506 219.121C445.657 219.237 442.809 219.288 439.96 219.332L431.414 219.397L422.869 219.332C420.013 219.288 417.172 219.252 414.323 219.121Z" fill="#A6A6A6"/>
<path d="M271.933 156.925H318.512V110.388H271.933V156.925Z" fill="#EBEBEB"/>
<path d="M274.673 154.188H315.773V113.125H274.673V154.188Z" fill="#455A64"/>
<path d="M281.293 122.919C281.129 123.735 281.233 124.581 281.589 125.334C281.944 126.086 282.533 126.704 283.267 127.097C284.001 127.489 284.842 127.636 285.666 127.514C286.49 127.392 287.253 127.008 287.842 126.42C288.43 125.832 288.814 125.07 288.936 124.247C289.058 123.424 288.912 122.583 288.519 121.85C288.126 121.116 287.508 120.528 286.754 120.173C286.001 119.818 285.154 119.714 284.337 119.877C283.586 120.027 282.896 120.396 282.354 120.937C281.812 121.479 281.443 122.168 281.293 122.919Z" fill="#37474F"/>
<path d="M286.066 143.53H315.773L300.919 126.89L286.066 143.53Z" fill="#37474F"/>
<path d="M274.672 143.53H299.197L286.931 132.691L274.672 143.53Z" fill="#263238"/>
<path d="M315.773 143.53H274.672V154.188H315.773V143.53Z" fill="#263238"/>
<path d="M405.807 156.925H452.386V110.388H405.807V156.925Z" fill="#EBEBEB"/>
<path d="M408.546 154.188H449.646V113.125H408.546V154.188Z" fill="#455A64"/>
<path d="M415.166 122.919C415.005 123.733 415.109 124.578 415.465 125.328C415.82 126.078 416.407 126.695 417.14 127.086C417.873 127.477 418.712 127.622 419.534 127.5C420.356 127.379 421.117 126.996 421.704 126.409C422.292 125.822 422.675 125.062 422.797 124.241C422.919 123.42 422.773 122.581 422.382 121.849C421.99 121.117 421.373 120.53 420.622 120.175C419.871 119.82 419.026 119.716 418.211 119.877C417.459 120.026 416.769 120.395 416.227 120.937C415.685 121.478 415.316 122.168 415.166 122.919Z" fill="#37474F"/>
<path d="M419.94 143.53H449.647L434.793 126.89L419.94 143.53Z" fill="#37474F"/>
<path d="M408.539 143.53H433.064L420.805 132.691L408.539 143.53Z" fill="#263238"/>
<path d="M449.639 143.53H408.539V154.188H449.639V143.53Z" fill="#263238"/>
<path d="M338.859 156.925H385.446V110.388H338.859V156.925Z" fill="#EBEBEB"/>
<path d="M341.606 154.188H382.706V113.125H341.606V154.188Z" fill="#014E7B"/>
<path opacity="0.1" d="M348.226 122.919C348.062 123.735 348.166 124.581 348.522 125.334C348.877 126.086 349.466 126.704 350.2 127.097C350.934 127.489 351.776 127.636 352.599 127.514C353.423 127.392 354.186 127.008 354.775 126.42C355.364 125.832 355.747 125.07 355.869 124.247C355.991 123.424 355.845 122.583 355.452 121.85C355.059 121.116 354.441 120.528 353.688 120.173C352.934 119.818 352.087 119.714 351.27 119.877C350.519 120.027 349.829 120.396 349.287 120.937C348.745 121.479 348.376 122.168 348.226 122.919Z" fill="black"/>
<path opacity="0.1" d="M353 143.53H382.706L367.853 126.89L353 143.53Z" fill="black"/>
<path d="M341.606 143.53H366.131L353.872 132.691L341.606 143.53Z" fill="#014E7B"/>
<g opacity="0.2">
<path opacity="0.2" d="M341.606 143.53H366.131L353.872 132.691L341.606 143.53Z" fill="black"/>
</g>
<path d="M382.706 143.53H341.606V154.188H382.706V143.53Z" fill="#014E7B"/>
<path opacity="0.2" d="M382.706 143.53H341.606V154.188H382.706V143.53Z" fill="black"/>
<path d="M274.672 170.951L286.045 170.82L297.417 170.741L320.169 170.675L342.914 170.741L354.286 170.813L365.666 170.951L354.286 171.082L342.914 171.162L320.169 171.22L297.417 171.162L286.045 171.082L274.672 170.951Z" fill="white"/>
<path d="M274.672 174.305L286.045 174.175L297.417 174.102L320.169 174.037L342.914 174.102L354.286 174.175L365.666 174.305L354.286 174.443L342.914 174.516L320.169 174.581L297.417 174.516L286.045 174.443L274.672 174.305Z" fill="white"/>
<path d="M274.672 177.667L286.045 177.536L297.417 177.456L320.169 177.398L342.914 177.456L354.286 177.536L365.666 177.667L354.286 177.797L342.914 177.877L320.169 177.935L297.417 177.877L286.045 177.797L274.672 177.667Z" fill="white"/>
<path d="M274.68 181.028C278.466 180.912 282.259 180.861 286.052 180.817L297.424 180.752L308.797 180.817C312.59 180.861 316.383 180.912 320.176 181.028C316.383 181.137 312.59 181.188 308.797 181.231L297.424 181.296L286.052 181.231C282.252 181.188 278.458 181.137 274.68 181.028Z" fill="white"/>
<path d="M244.945 179.322V172.657L241.704 175.75L244.945 179.322Z" fill="white"/>
<path d="M479.542 172.657V179.322L482.782 176.229L479.542 172.657Z" fill="white"/>
<path d="M182.88 73.4564C182.88 76.2495 183.709 78.9799 185.262 81.3022C186.816 83.6245 189.023 85.4344 191.606 86.5029C194.189 87.5715 197.032 87.8507 199.774 87.3053C202.515 86.7598 205.034 85.4142 207.01 83.4387C208.986 81.4631 210.332 78.9464 210.876 76.2068C211.421 73.4672 211.14 70.6277 210.069 68.0476C208.998 65.4675 207.186 63.2627 204.86 61.712C202.535 60.1612 199.802 59.3343 197.006 59.3357C193.26 59.3415 189.669 60.8313 187.021 63.4784C184.373 66.1255 182.884 69.7138 182.88 73.4564ZM185.888 73.4564C185.887 71.2575 186.538 69.1075 187.76 67.2785C188.982 65.4495 190.72 64.0237 192.753 63.1816C194.786 62.3394 197.023 62.1187 199.182 62.5473C201.341 62.976 203.324 64.0347 204.88 65.5896C206.437 67.1445 207.496 69.1257 207.925 71.2825C208.354 73.4393 208.133 75.6748 207.291 77.7061C206.448 79.7374 205.02 81.4732 203.19 82.694C201.359 83.9148 199.207 84.5657 197.006 84.5642C194.058 84.5642 191.23 83.3939 189.145 81.3108C187.06 79.2277 185.888 76.4024 185.888 73.4564ZM182.88 73.4564C182.88 76.2495 183.709 78.9799 185.262 81.3022C186.816 83.6245 189.023 85.4344 191.606 86.5029C194.189 87.5715 197.032 87.8507 199.774 87.3053C202.515 86.7598 205.034 85.4142 207.01 83.4387C208.986 81.4631 210.332 78.9464 210.876 76.2068C211.421 73.4672 211.14 70.6277 210.069 68.0476C208.998 65.4675 207.186 63.2627 204.86 61.712C202.535 60.1612 199.802 59.3343 197.006 59.3357C193.26 59.3415 189.669 60.8313 187.021 63.4784C184.373 66.1255 182.884 69.7138 182.88 73.4564ZM185.888 73.4564C185.887 71.2575 186.538 69.1075 187.76 67.2785C188.982 65.4495 190.72 64.0237 192.753 63.1816C194.786 62.3394 197.023 62.1187 199.182 62.5473C201.341 62.976 203.324 64.0347 204.88 65.5896C206.437 67.1445 207.496 69.1257 207.925 71.2825C208.354 73.4393 208.133 75.6748 207.291 77.7061C206.448 79.7374 205.02 81.4732 203.19 82.694C201.359 83.9148 199.207 84.5657 197.006 84.5642C194.058 84.5642 191.23 83.3939 189.145 81.3108C187.06 79.2277 185.888 76.4024 185.888 73.4564ZM173.193 73.4564C173.195 78.1633 174.593 82.764 177.212 86.6768C179.83 90.5896 183.552 93.6388 187.905 95.4387C192.258 97.2386 197.047 97.7084 201.668 96.7887C206.288 95.8691 210.532 93.6012 213.862 90.2719C217.192 86.9427 219.46 82.7015 220.377 78.0849C221.295 73.4682 220.822 68.6833 219.018 64.3352C217.213 59.9872 214.159 56.2714 210.241 53.6576C206.323 51.0438 201.717 49.6494 197.006 49.6509C193.878 49.6509 190.78 50.2667 187.89 51.4633C185 52.6598 182.374 54.4135 180.163 56.6242C177.951 58.835 176.198 61.4594 175.002 64.3475C173.806 67.2357 173.191 70.3309 173.193 73.4564ZM181.528 73.4564C181.528 70.3962 182.437 67.4048 184.138 64.8604C185.84 62.316 188.259 60.3331 191.089 59.1623C193.919 57.9916 197.033 57.6856 200.037 58.2832C203.041 58.8807 205.8 60.3549 207.966 62.5193C210.131 64.6837 211.605 67.441 212.202 70.4426C212.799 73.4442 212.491 76.5551 211.318 79.382C210.145 82.2088 208.159 84.6246 205.611 86.3237C203.064 88.0228 200.069 88.9289 197.006 88.9275C192.902 88.9198 188.969 87.2871 186.068 84.3872C183.166 81.4873 181.534 77.5566 181.528 73.4564ZM182.88 73.4564C182.88 76.2495 183.709 78.9799 185.262 81.3022C186.816 83.6245 189.023 85.4344 191.606 86.5029C194.189 87.5715 197.032 87.8507 199.774 87.3053C202.515 86.7598 205.034 85.4142 207.01 83.4387C208.986 81.4631 210.332 78.9464 210.876 76.2068C211.421 73.4672 211.14 70.6277 210.069 68.0476C208.998 65.4675 207.186 63.2627 204.86 61.712C202.535 60.1612 199.802 59.3343 197.006 59.3357C193.26 59.3415 189.669 60.8313 187.021 63.4784C184.373 66.1255 182.884 69.7138 182.88 73.4564ZM185.888 73.4564C185.887 71.2575 186.538 69.1075 187.76 67.2785C188.982 65.4495 190.72 64.0237 192.753 63.1816C194.786 62.3394 197.023 62.1187 199.182 62.5473C201.341 62.976 203.324 64.0347 204.88 65.5896C206.437 67.1445 207.496 69.1257 207.925 71.2825C208.354 73.4393 208.133 75.6748 207.291 77.7061C206.448 79.7374 205.02 81.4732 203.19 82.694C201.359 83.9148 199.207 84.5657 197.006 84.5642C194.058 84.5642 191.23 83.3939 189.145 81.3108C187.06 79.2277 185.888 76.4024 185.888 73.4564Z" fill="#014E7B"/>
<path d="M194.216 50.0867H199.666L199.121 44.6489H194.754L194.216 50.0867Z" fill="#014E7B"/>
<path d="M206.286 51.8215L211.009 54.544L213.255 49.5637L209.476 47.3784L206.286 51.8215Z" fill="#014E7B"/>
<path d="M215.871 59.3502L218.596 64.0692L223.036 60.8748L220.856 57.0996L215.871 59.3502Z" fill="#014E7B"/>
<path d="M220.398 70.6543V76.1066L225.841 75.5621V71.1988L220.398 70.6543Z" fill="#014E7B"/>
<path d="M218.668 82.7129L215.936 87.4319L220.921 89.6825L223.108 85.9073L218.668 82.7129Z" fill="#014E7B"/>
<path d="M211.126 92.2891L206.402 95.0188L209.6 99.4547L213.378 97.2694L211.126 92.2891Z" fill="#014E7B"/>
<path d="M199.811 96.8193H194.354L194.899 102.257H199.266L199.811 96.8193Z" fill="#014E7B"/>
<path d="M187.742 95.0843L183.018 92.3618L180.766 97.3422L184.552 99.5274L187.742 95.0843Z" fill="#014E7B"/>
<path d="M178.157 87.5554L175.424 82.8364L170.984 86.0236L173.172 89.806L178.157 87.5554Z" fill="#014E7B"/>
<path d="M173.622 76.2443V70.7993L168.18 71.3438V75.7071L173.622 76.2443Z" fill="#014E7B"/>
<path d="M175.359 64.1927L178.084 59.4737L173.099 57.2231L170.912 60.9983L175.359 64.1927Z" fill="#014E7B"/>
<path d="M182.894 54.6095L187.618 51.887L184.428 47.4512L180.642 49.6292L182.894 54.6095Z" fill="#014E7B"/>
<path d="M137.565 51.8363C137.493 54.5752 138.235 57.2741 139.698 59.5916C141.161 61.909 143.279 63.741 145.784 64.8557C148.289 65.9704 151.069 66.3178 153.772 65.8541C156.475 65.3903 158.979 64.1361 160.968 62.2501C162.958 60.3642 164.343 57.9312 164.948 55.2588C165.553 52.5865 165.351 49.7949 164.368 47.237C163.386 44.6791 161.665 42.47 159.426 40.8889C157.186 39.3078 154.527 38.4258 151.786 38.3545C149.966 38.3062 148.154 38.6167 146.454 39.2682C144.755 39.9197 143.2 40.8994 141.879 42.1514C140.559 43.4035 139.498 44.9032 138.758 46.565C138.017 48.2268 137.612 50.018 137.565 51.8363ZM144.948 52.0323C144.981 50.7533 145.394 49.5129 146.133 48.468C146.872 47.4231 147.905 46.6208 149.101 46.1624C150.296 45.7039 151.601 45.6101 152.85 45.8927C154.099 46.1752 155.236 46.8215 156.118 47.7498C156.999 48.6781 157.585 49.8467 157.802 51.1078C158.018 52.3688 157.856 53.6658 157.334 54.8345C156.813 56.0032 155.957 56.9912 154.873 57.6736C153.79 58.3559 152.528 58.702 151.248 58.668C149.532 58.6224 147.904 57.8977 146.723 56.6534C145.541 55.409 144.903 53.7469 144.948 52.0323Z" fill="#EBEBEB"/>
<path d="M149.112 38.8554L154.438 39.0006L154.242 35.2254L149.504 35.0947L149.112 38.8554Z" fill="#EBEBEB"/>
<path d="M159.205 40.9175L162.875 44.7871L165.411 41.9774L162.148 38.5435L159.205 40.9175Z" fill="#EBEBEB"/>
<path d="M164.888 49.5132L164.742 54.8348L168.521 54.6387L168.652 49.9052L164.888 49.5132Z" fill="#EBEBEB"/>
<path d="M162.824 59.5972L158.951 63.2635L161.763 65.7972L165.207 62.5375L162.824 59.5972Z" fill="#EBEBEB"/>
<path d="M154.22 65.2746L148.894 65.1294L149.09 68.9119L153.828 69.0353L154.22 65.2746Z" fill="#EBEBEB"/>
<path d="M144.127 63.2128L140.457 59.3433L137.921 62.1529L141.184 65.5941L144.127 63.2128Z" fill="#EBEBEB"/>
<path d="M138.444 54.617L138.59 49.2954L134.811 49.4914L134.68 54.2249L138.444 54.617Z" fill="#EBEBEB"/>
<path d="M140.508 44.5326L144.381 40.8663L141.569 38.3325L138.125 41.5995L140.508 44.5326Z" fill="#EBEBEB"/>
<path d="M155.107 48.8089L150.558 47.4585L147.121 50.7182L148.24 55.3211L152.781 56.6714L156.233 53.4117L155.107 48.8089ZM151.626 53.5642C151.328 53.5568 151.039 53.4612 150.795 53.2894C150.552 53.1176 150.365 52.8774 150.258 52.5993C150.152 52.3212 150.13 52.0178 150.197 51.7274C150.263 51.4371 150.414 51.173 150.631 50.9687C150.848 50.7643 151.12 50.6289 151.414 50.5797C151.708 50.5304 152.01 50.5695 152.282 50.6921C152.554 50.8146 152.783 51.015 152.94 51.2678C153.098 51.5206 153.176 51.8145 153.166 52.1122C153.153 52.5082 152.984 52.883 152.695 53.1549C152.407 53.4269 152.022 53.574 151.626 53.5642Z" fill="#EBEBEB"/>
<path d="M196.941 40.8155V37.0186H282.768V51.5023" stroke="#263238" stroke-width="0.75" stroke-miterlimit="10" stroke-dasharray="2 2"/>
<path d="M281.678 51.1899L282.768 53.0703L283.85 51.1899H281.678Z" fill="#263238"/>
<path d="M476.054 271.059C476.762 273.649 477.231 276.298 477.456 278.973C477.384 279.103 477.398 279.597 477.456 279.459C477.456 279.895 478.132 279.815 478.132 279.386C478.132 279.111 478.132 278.827 478.132 278.559C479.68 276.635 481.932 275.422 483.742 273.753C485.205 272.445 486.271 270.751 486.816 268.867C488.327 263.683 486.91 258.187 488.727 253.011C490.289 248.553 493.087 244.676 495.456 240.633C497.955 236.364 499.816 231.87 499.99 226.839C500.135 223.005 499.678 217.901 496.756 215.026C493.661 211.985 489.824 214.264 487.448 216.979C480.574 224.864 477.391 234.825 476.105 245.01C475.378 250.651 474.651 256.321 474.833 262.013C474.939 265.062 475.348 268.092 476.054 271.059Z" fill="#014E7B"/>
<path d="M477.42 281.042C477.043 275.721 477.106 270.379 477.609 265.07C477.609 265.07 477.609 265.07 477.609 265.011C477.522 260.699 477.18 256.394 477.347 252.074C477.559 247.399 478.196 242.753 479.251 238.193C479.251 238.142 479.345 238.193 479.338 238.193C478.492 242.674 477.989 247.212 477.834 251.769C477.747 254.209 477.761 256.648 477.892 259.08C477.936 259.879 478.008 260.677 478.059 261.476C479.857 249.356 484.241 237.764 490.914 227.485C491.008 227.347 491.256 227.485 491.168 227.637C486.399 235.449 482.869 243.952 480.704 252.844C484.011 246.724 489.003 241.685 492.709 235.804C492.709 235.804 492.782 235.804 492.767 235.841C489.439 242.375 483.938 247.551 480.414 253.991C479.803 256.626 479.302 259.276 478.96 261.977C478.462 265.623 478.191 269.296 478.146 272.976C480.159 269.215 482.245 265.621 483.894 261.643C483.938 261.541 484.091 261.607 484.054 261.715C482.652 265.846 480.77 270.297 478.132 273.818C478.132 276.439 478.197 279.052 478.35 281.666C478.764 288.635 479.956 295.518 480.53 302.466C480.53 302.508 480.513 302.549 480.483 302.579C480.453 302.609 480.412 302.626 480.37 302.626C480.328 302.626 480.287 302.609 480.257 302.579C480.227 302.549 480.21 302.508 480.21 302.466C478.793 295.396 477.861 288.238 477.42 281.042Z" fill="#263238"/>
<path d="M484.839 227.238C484.839 227.187 484.934 227.238 484.912 227.238C483.64 230.759 482.921 234.331 482.005 237.939C481.999 237.974 481.98 238.005 481.951 238.025C481.923 238.046 481.887 238.054 481.852 238.048C481.818 238.042 481.787 238.023 481.766 237.994C481.746 237.966 481.738 237.93 481.744 237.896C482.107 234.295 483.422 230.643 484.839 227.238Z" fill="#263238"/>
<path d="M452.466 242.026C453.31 244.09 454.281 246.1 455.373 248.045C457.669 252.212 460.067 256.031 460.46 260.873C460.536 263.044 460.846 265.201 461.382 267.306C461.991 269.097 462.855 270.791 463.948 272.337C466.44 275.967 469.55 279.074 471.854 282.835C474.272 286.749 476.064 291.016 477.166 295.482C477.217 295.728 477.602 295.663 477.543 295.416C477.543 295.416 477.543 295.38 477.543 295.365C477.547 295.349 477.547 295.331 477.543 295.315C477.907 284.911 477.078 274.435 473.91 264.474C472.507 260.094 470.823 255.809 468.867 251.646C467.268 247.966 464.954 244.639 462.058 241.859C460.118 240.117 455.918 236.814 453.164 238.563C451.849 239.405 451.943 240.734 452.466 242.026Z" fill="#014E7B"/>
<path d="M462.923 265.6C464.757 268.626 466.779 271.536 468.976 274.312C469.979 275.626 471.003 276.925 472.013 278.247C472.486 278.864 473.016 279.488 473.467 280.156C473.191 279.06 472.929 277.978 472.646 276.875C471.301 271.618 470.015 266.318 468.009 261.266C465.964 256.373 463.55 251.643 460.786 247.116C460.714 246.992 460.91 246.905 460.983 247.021C463.163 250.651 465.415 254.245 467.261 258.057C468.282 260.178 469.173 262.361 469.928 264.591C469.08 259.851 467.895 255.179 466.382 250.608C466.382 250.564 466.425 250.535 466.44 250.608C468.424 255.224 469.667 260.125 470.124 265.128C470.575 266.478 470.991 267.841 471.374 269.215C473.016 275.023 474.455 280.911 475.792 286.806C475.814 282.931 475.478 279.062 474.789 275.248C474.789 275.154 474.898 275.139 474.92 275.248C475.937 279.226 476.278 283.347 475.93 287.438C476.432 289.681 476.926 291.932 477.383 294.175C478.401 298.967 479.658 303.845 480.29 308.695C480.284 308.717 480.271 308.736 480.254 308.749C480.236 308.763 480.214 308.77 480.192 308.77C480.17 308.77 480.148 308.763 480.13 308.749C480.113 308.736 480.1 308.717 480.094 308.695C479.367 306.074 478.953 303.352 478.364 300.709C477.776 298.066 477.18 295.388 476.555 292.723C475.654 288.851 474.717 284.979 473.743 281.107C473.096 279.691 471.854 278.435 470.916 277.252C469.892 275.953 468.867 274.653 467.871 273.332C465.999 270.886 464.325 268.296 462.865 265.585C462.807 265.585 462.886 265.549 462.923 265.6Z" fill="#263238"/>
<path d="M462.48 261.156C464.772 264.076 466.756 267.224 468.402 270.551C468.402 270.594 468.358 270.638 468.329 270.594C466.338 267.48 464.376 264.336 462.392 261.214C462.356 261.164 462.443 261.106 462.48 261.156Z" fill="#263238"/>
<path d="M506.785 251.922C505.44 254.245 503.878 257.004 504.481 259.821C504.844 261.585 506.138 263.015 506.37 264.815C506.894 268.787 502.933 271.407 500.063 273.288C492.92 277.971 483.117 282.145 481.816 291.714C481.766 292.055 481.184 291.968 481.228 291.634C481.228 291.634 481.228 291.634 481.228 291.576C481.228 291.518 481.228 291.576 481.228 291.518C480.286 286.687 480.331 281.716 481.359 276.903C482.427 271.974 484.578 267.545 487.121 263.211C491.423 255.878 495.979 248.372 502.483 242.76C504.285 241.206 507.969 238.404 509.401 241.917C510.832 245.431 508.441 249.061 506.785 251.922Z" fill="#014E7B"/>
<path d="M500.245 267.429C495.507 272.555 487.979 275.415 483.895 281.165C486.173 272.427 490.48 264.349 496.466 257.584C496.619 257.41 496.372 257.156 496.204 257.323C491.841 261.559 488.35 266.608 485.929 272.184C487.06 268.293 488.541 264.512 490.355 260.888C490.42 260.75 490.224 260.626 490.144 260.764C487.907 264.721 486.31 269.007 485.414 273.462C480.043 286.457 479.542 301.703 480.668 315.403C480.676 315.439 480.696 315.471 480.724 315.494C480.753 315.516 480.788 315.529 480.825 315.529C480.861 315.529 480.897 315.516 480.925 315.494C480.953 315.471 480.973 315.439 480.981 315.403C480.668 304.607 480.843 293.623 483.437 283.082C483.488 282.856 483.546 282.639 483.604 282.421C488.044 276.243 495.543 273.382 500.368 267.509C500.376 267.458 500.296 267.371 500.245 267.429Z" fill="#263238"/>
<path d="M501.342 263.03C498.856 265.309 496.408 267.64 493.915 269.919C493.915 269.919 493.915 269.985 493.915 269.963C496.737 268.067 499.276 265.781 501.458 263.175C501.464 263.157 501.466 263.138 501.463 263.12C501.46 263.102 501.452 263.084 501.441 263.07C501.429 263.055 501.414 263.044 501.396 263.037C501.379 263.03 501.36 263.027 501.342 263.03Z" fill="#263238"/>
<path d="M501.742 253.149C499.541 256.755 497.05 260.176 494.293 263.378C494.289 263.383 494.287 263.388 494.285 263.393C494.283 263.398 494.282 263.404 494.282 263.41C494.283 263.416 494.284 263.421 494.287 263.426C494.289 263.432 494.293 263.436 494.297 263.44C494.301 263.444 494.306 263.447 494.312 263.449C494.317 263.451 494.323 263.451 494.329 263.451C494.334 263.451 494.34 263.449 494.345 263.447C494.35 263.444 494.355 263.441 494.359 263.436C497.449 260.506 499.993 257.049 501.872 253.229C501.916 253.142 501.792 253.062 501.742 253.149Z" fill="#263238"/>
<path d="M490.536 325.066H468.751L471.687 295.779H487.187L490.536 325.066Z" fill="#455A64"/>
<path d="M487.731 300.542H471.207L471.687 295.779H487.186L487.731 300.542Z" fill="#263238"/>
<path d="M489.853 292.534H469.434V297.21H489.853V292.534Z" fill="#455A64"/>
</svg>
